<mxfile host="app.diagrams.net" modified="2024-04-26T12:54:16.755Z" agent="Mozilla/5.0 (Windows NT 10.0; Win64; x64; rv:125.0) Gecko/20100101 Firefox/125.0" etag="ICXDo4QuC7Jnm9rnxRlP" version="24.3.0" type="device">
  <diagram name="Page-1" id="wUViZiPC8uXndsal970Q">
    <mxGraphModel dx="1434" dy="782" grid="1" gridSize="10" guides="1" tooltips="1" connect="1" arrows="1" fold="1" page="1" pageScale="1" pageWidth="3300" pageHeight="2339" math="0" shadow="0">
      <root>
        <mxCell id="0" />
        <mxCell id="1" parent="0" />
        <mxCell id="S-JsonbqND__SWyfuir0-142" value="&lt;font style=&quot;font-size: 30px;&quot;&gt;Level 0&lt;/font&gt;" style="text;html=1;align=center;verticalAlign=middle;resizable=0;points=[];autosize=1;strokeColor=none;fillColor=none;" parent="1" vertex="1">
          <mxGeometry x="2280" y="45" width="120" height="50" as="geometry" />
        </mxCell>
        <mxCell id="S-JsonbqND__SWyfuir0-143" value="&lt;font style=&quot;font-size: 30px;&quot;&gt;Level 3&lt;/font&gt;" style="text;html=1;align=center;verticalAlign=middle;resizable=0;points=[];autosize=1;strokeColor=none;fillColor=none;" parent="1" vertex="1">
          <mxGeometry x="2280" y="821" width="120" height="50" as="geometry" />
        </mxCell>
        <mxCell id="S-JsonbqND__SWyfuir0-144" value="&lt;font style=&quot;font-size: 30px;&quot;&gt;Level 2&lt;/font&gt;" style="text;html=1;align=center;verticalAlign=middle;resizable=0;points=[];autosize=1;strokeColor=none;fillColor=none;" parent="1" vertex="1">
          <mxGeometry x="2280" y="575" width="120" height="50" as="geometry" />
        </mxCell>
        <mxCell id="S-JsonbqND__SWyfuir0-145" value="&lt;font style=&quot;font-size: 30px;&quot;&gt;Level 1&lt;/font&gt;" style="text;html=1;align=center;verticalAlign=middle;resizable=0;points=[];autosize=1;strokeColor=none;fillColor=none;" parent="1" vertex="1">
          <mxGeometry x="2280" y="315" width="120" height="50" as="geometry" />
        </mxCell>
        <mxCell id="S-JsonbqND__SWyfuir0-173" value="&lt;font style=&quot;font-size: 19px;&quot;&gt;3.1.2&lt;/font&gt;" style="text;html=1;align=center;verticalAlign=middle;resizable=0;points=[];autosize=1;strokeColor=none;fillColor=none;" parent="1" vertex="1">
          <mxGeometry x="1060" y="892" width="70" height="40" as="geometry" />
        </mxCell>
        <mxCell id="B8EaVAHdHB4vTxpewh6I-9" value="" style="group" parent="1" vertex="1" connectable="0">
          <mxGeometry x="1000" y="540" width="130" height="120" as="geometry" />
        </mxCell>
        <mxCell id="B8EaVAHdHB4vTxpewh6I-5" value="&lt;div style=&quot;font-size: 14px;&quot;&gt;&lt;font style=&quot;font-size: 14px;&quot; face=&quot;Helvetica&quot;&gt;Panic button&lt;/font&gt;&lt;/div&gt;&lt;div style=&quot;font-size: 14px;&quot;&gt;&lt;font style=&quot;font-size: 14px;&quot; face=&quot;Helvetica&quot;&gt;R5,830&lt;br&gt;&lt;/font&gt;&lt;/div&gt;" style="html=1;whiteSpace=wrap;" parent="B8EaVAHdHB4vTxpewh6I-9" vertex="1">
          <mxGeometry y="30" width="130" height="60" as="geometry" />
        </mxCell>
        <mxCell id="B8EaVAHdHB4vTxpewh6I-6" value="Eben" style="html=1;whiteSpace=wrap;rounded=0;fillStyle=auto;" parent="B8EaVAHdHB4vTxpewh6I-9" vertex="1">
          <mxGeometry y="90" width="130" height="30" as="geometry" />
        </mxCell>
        <mxCell id="B8EaVAHdHB4vTxpewh6I-7" value="3.1" style="text;html=1;align=center;verticalAlign=middle;whiteSpace=wrap;rounded=0;fontSize=19;" parent="B8EaVAHdHB4vTxpewh6I-9" vertex="1">
          <mxGeometry x="103" width="27" height="30" as="geometry" />
        </mxCell>
        <mxCell id="B8EaVAHdHB4vTxpewh6I-10" value="" style="group" parent="1" vertex="1" connectable="0">
          <mxGeometry x="1000" y="701" width="130" height="120" as="geometry" />
        </mxCell>
        <mxCell id="B8EaVAHdHB4vTxpewh6I-11" value="&lt;font style=&quot;font-size: 14px;&quot;&gt;Design&amp;nbsp;&lt;/font&gt;&lt;div style=&quot;font-size: 14px;&quot;&gt;&lt;font style=&quot;font-size: 14px;&quot;&gt;button icon&lt;/font&gt;&lt;/div&gt;&lt;div style=&quot;font-size: 14px;&quot;&gt;&lt;font style=&quot;font-size: 14px;&quot;&gt;&lt;font style=&quot;font-size: 14px;&quot;&gt;R530&lt;/font&gt;&lt;br&gt;&lt;/font&gt;&lt;/div&gt;" style="html=1;whiteSpace=wrap;" parent="B8EaVAHdHB4vTxpewh6I-10" vertex="1">
          <mxGeometry y="30" width="130" height="60" as="geometry" />
        </mxCell>
        <mxCell id="B8EaVAHdHB4vTxpewh6I-12" value="Blessing" style="html=1;whiteSpace=wrap;rounded=0;fillStyle=auto;" parent="B8EaVAHdHB4vTxpewh6I-10" vertex="1">
          <mxGeometry y="90" width="130" height="30" as="geometry" />
        </mxCell>
        <mxCell id="B8EaVAHdHB4vTxpewh6I-13" value="3.1.1" style="text;html=1;align=center;verticalAlign=middle;whiteSpace=wrap;rounded=0;fontSize=19;" parent="B8EaVAHdHB4vTxpewh6I-10" vertex="1">
          <mxGeometry x="96" width="27" height="30" as="geometry" />
        </mxCell>
        <mxCell id="B8EaVAHdHB4vTxpewh6I-14" value="" style="group" parent="1" vertex="1" connectable="0">
          <mxGeometry x="1000" y="861" width="130" height="120" as="geometry" />
        </mxCell>
        <mxCell id="B8EaVAHdHB4vTxpewh6I-255" style="edgeStyle=orthogonalEdgeStyle;rounded=0;orthogonalLoop=1;jettySize=auto;html=1;endArrow=none;endFill=0;" parent="B8EaVAHdHB4vTxpewh6I-14" source="B8EaVAHdHB4vTxpewh6I-15" edge="1">
          <mxGeometry relative="1" as="geometry">
            <mxPoint x="-30" y="-101" as="targetPoint" />
            <Array as="points">
              <mxPoint x="-30" y="60" />
              <mxPoint x="-30" y="-101" />
            </Array>
          </mxGeometry>
        </mxCell>
        <mxCell id="B8EaVAHdHB4vTxpewh6I-15" value="&lt;font style=&quot;font-size: 14px;&quot;&gt;Design&amp;nbsp;&lt;/font&gt;&lt;div style=&quot;font-size: 14px;&quot;&gt;&lt;font style=&quot;font-size: 14px;&quot;&gt;button states&lt;/font&gt;&lt;/div&gt;&lt;div style=&quot;font-size: 14px;&quot;&gt;&lt;font style=&quot;font-size: 14px;&quot;&gt;&lt;font style=&quot;font-size: 14px;&quot;&gt;R1,590&lt;/font&gt;&lt;br&gt;&lt;/font&gt;&lt;/div&gt;" style="html=1;whiteSpace=wrap;" parent="B8EaVAHdHB4vTxpewh6I-14" vertex="1">
          <mxGeometry y="30" width="130" height="60" as="geometry" />
        </mxCell>
        <mxCell id="B8EaVAHdHB4vTxpewh6I-16" value="Kaushil" style="html=1;whiteSpace=wrap;rounded=0;fillStyle=auto;" parent="B8EaVAHdHB4vTxpewh6I-14" vertex="1">
          <mxGeometry y="90" width="130" height="30" as="geometry" />
        </mxCell>
        <mxCell id="B8EaVAHdHB4vTxpewh6I-17" value="3.1.2" style="text;html=1;align=center;verticalAlign=middle;whiteSpace=wrap;rounded=0;fontSize=19;" parent="B8EaVAHdHB4vTxpewh6I-14" vertex="1">
          <mxGeometry x="96" width="27" height="30" as="geometry" />
        </mxCell>
        <mxCell id="B8EaVAHdHB4vTxpewh6I-18" value="" style="group" parent="1" vertex="1" connectable="0">
          <mxGeometry x="1000" y="1020" width="130" height="120" as="geometry" />
        </mxCell>
        <mxCell id="B8EaVAHdHB4vTxpewh6I-257" style="edgeStyle=orthogonalEdgeStyle;rounded=0;orthogonalLoop=1;jettySize=auto;html=1;endArrow=none;endFill=0;" parent="B8EaVAHdHB4vTxpewh6I-18" source="B8EaVAHdHB4vTxpewh6I-19" edge="1">
          <mxGeometry relative="1" as="geometry">
            <mxPoint x="-30" y="-100" as="targetPoint" />
            <Array as="points">
              <mxPoint x="-30" y="60" />
              <mxPoint x="-30" y="-100" />
            </Array>
          </mxGeometry>
        </mxCell>
        <mxCell id="B8EaVAHdHB4vTxpewh6I-19" value="&lt;font style=&quot;font-size: 14px;&quot;&gt;Design&amp;nbsp;&lt;/font&gt;&lt;div style=&quot;font-size: 14px;&quot;&gt;&lt;font style=&quot;font-size: 14px;&quot;&gt;button &lt;span style=&quot;background-color: initial;&quot;&gt;animations&lt;/span&gt;&lt;/font&gt;&lt;/div&gt;&lt;div style=&quot;font-size: 14px;&quot;&gt;&lt;font style=&quot;font-size: 14px;&quot;&gt;&lt;span style=&quot;background-color: initial;&quot;&gt;R3,710&lt;br&gt;&lt;/span&gt;&lt;/font&gt;&lt;/div&gt;" style="html=1;whiteSpace=wrap;" parent="B8EaVAHdHB4vTxpewh6I-18" vertex="1">
          <mxGeometry y="30" width="130" height="60" as="geometry" />
        </mxCell>
        <mxCell id="B8EaVAHdHB4vTxpewh6I-20" value="Avish" style="html=1;whiteSpace=wrap;rounded=0;fillStyle=auto;" parent="B8EaVAHdHB4vTxpewh6I-18" vertex="1">
          <mxGeometry y="90" width="130" height="30" as="geometry" />
        </mxCell>
        <mxCell id="B8EaVAHdHB4vTxpewh6I-21" value="3.1.3" style="text;html=1;align=center;verticalAlign=middle;whiteSpace=wrap;rounded=0;fontSize=19;" parent="B8EaVAHdHB4vTxpewh6I-18" vertex="1">
          <mxGeometry x="96" width="27" height="30" as="geometry" />
        </mxCell>
        <mxCell id="B8EaVAHdHB4vTxpewh6I-22" value="&lt;font style=&quot;font-size: 19px;&quot;&gt;3.1.2&lt;/font&gt;" style="text;html=1;align=center;verticalAlign=middle;resizable=0;points=[];autosize=1;strokeColor=none;fillColor=none;" parent="1" vertex="1">
          <mxGeometry x="180" y="941" width="70" height="40" as="geometry" />
        </mxCell>
        <mxCell id="B8EaVAHdHB4vTxpewh6I-23" value="" style="group" parent="1" vertex="1" connectable="0">
          <mxGeometry x="120" y="540" width="130" height="120" as="geometry" />
        </mxCell>
        <mxCell id="B8EaVAHdHB4vTxpewh6I-24" value="&lt;font style=&quot;font-size: 14px;&quot;&gt;Project research&lt;/font&gt;&lt;div style=&quot;font-size: 14px;&quot;&gt;&lt;font style=&quot;font-size: 14px;&quot;&gt;&lt;font style=&quot;font-size: 14px;&quot;&gt;R25,872&lt;/font&gt;&lt;br&gt;&lt;/font&gt;&lt;/div&gt;" style="html=1;whiteSpace=wrap;" parent="B8EaVAHdHB4vTxpewh6I-23" vertex="1">
          <mxGeometry y="30" width="130" height="60" as="geometry" />
        </mxCell>
        <mxCell id="B8EaVAHdHB4vTxpewh6I-25" value="Avish" style="html=1;whiteSpace=wrap;rounded=0;fillStyle=auto;" parent="B8EaVAHdHB4vTxpewh6I-23" vertex="1">
          <mxGeometry y="90" width="130" height="30" as="geometry" />
        </mxCell>
        <mxCell id="B8EaVAHdHB4vTxpewh6I-26" value="1.1" style="text;html=1;align=center;verticalAlign=middle;whiteSpace=wrap;rounded=0;fontSize=19;" parent="B8EaVAHdHB4vTxpewh6I-23" vertex="1">
          <mxGeometry x="103" width="27" height="30" as="geometry" />
        </mxCell>
        <mxCell id="B8EaVAHdHB4vTxpewh6I-27" value="" style="group" parent="1" vertex="1" connectable="0">
          <mxGeometry x="120" y="700" width="130" height="120" as="geometry" />
        </mxCell>
        <mxCell id="B8EaVAHdHB4vTxpewh6I-28" value="&lt;font style=&quot;font-size: 14px;&quot;&gt;Research&amp;nbsp;&lt;/font&gt;&lt;div style=&quot;font-size: 14px;&quot;&gt;&lt;font style=&quot;font-size: 14px;&quot;&gt;project viability&lt;/font&gt;&lt;/div&gt;&lt;div style=&quot;font-size: 14px;&quot;&gt;&lt;font style=&quot;font-size: 14px;&quot;&gt;&lt;font style=&quot;font-size: 14px;&quot;&gt;R8,624&lt;/font&gt;&lt;br&gt;&lt;/font&gt;&lt;/div&gt;" style="html=1;whiteSpace=wrap;" parent="B8EaVAHdHB4vTxpewh6I-27" vertex="1">
          <mxGeometry y="30" width="130" height="60" as="geometry" />
        </mxCell>
        <mxCell id="B8EaVAHdHB4vTxpewh6I-29" value="Eben" style="html=1;whiteSpace=wrap;rounded=0;fillStyle=auto;" parent="B8EaVAHdHB4vTxpewh6I-27" vertex="1">
          <mxGeometry y="90" width="130" height="30" as="geometry" />
        </mxCell>
        <mxCell id="B8EaVAHdHB4vTxpewh6I-30" value="1.1.1" style="text;html=1;align=center;verticalAlign=middle;whiteSpace=wrap;rounded=0;fontSize=19;" parent="B8EaVAHdHB4vTxpewh6I-27" vertex="1">
          <mxGeometry x="96" width="27" height="30" as="geometry" />
        </mxCell>
        <mxCell id="B8EaVAHdHB4vTxpewh6I-31" value="" style="group" parent="1" vertex="1" connectable="0">
          <mxGeometry x="120" y="861" width="130" height="120" as="geometry" />
        </mxCell>
        <mxCell id="B8EaVAHdHB4vTxpewh6I-226" style="edgeStyle=orthogonalEdgeStyle;rounded=0;orthogonalLoop=1;jettySize=auto;html=1;endArrow=none;endFill=0;" parent="B8EaVAHdHB4vTxpewh6I-31" source="B8EaVAHdHB4vTxpewh6I-32" edge="1">
          <mxGeometry relative="1" as="geometry">
            <mxPoint x="-30" y="-101" as="targetPoint" />
            <Array as="points">
              <mxPoint x="-30" y="60" />
              <mxPoint x="-30" y="-101" />
            </Array>
          </mxGeometry>
        </mxCell>
        <mxCell id="B8EaVAHdHB4vTxpewh6I-32" value="&lt;font style=&quot;font-size: 14px;&quot;&gt;Research&amp;nbsp;&lt;/font&gt;&lt;div style=&quot;font-size: 14px;&quot;&gt;&lt;font style=&quot;font-size: 14px;&quot;&gt;hosting costs&lt;/font&gt;&lt;/div&gt;&lt;div style=&quot;font-size: 14px;&quot;&gt;&lt;font style=&quot;font-size: 14px;&quot;&gt;&lt;font style=&quot;font-size: 14px;&quot;&gt;R6,468&lt;/font&gt;&lt;br&gt;&lt;/font&gt;&lt;/div&gt;" style="html=1;whiteSpace=wrap;" parent="B8EaVAHdHB4vTxpewh6I-31" vertex="1">
          <mxGeometry y="30" width="130" height="60" as="geometry" />
        </mxCell>
        <mxCell id="B8EaVAHdHB4vTxpewh6I-33" value="Kaushil" style="html=1;whiteSpace=wrap;rounded=0;fillStyle=auto;" parent="B8EaVAHdHB4vTxpewh6I-31" vertex="1">
          <mxGeometry y="90" width="130" height="30" as="geometry" />
        </mxCell>
        <mxCell id="B8EaVAHdHB4vTxpewh6I-34" value="1.1.2" style="text;html=1;align=center;verticalAlign=middle;whiteSpace=wrap;rounded=0;fontSize=19;" parent="B8EaVAHdHB4vTxpewh6I-31" vertex="1">
          <mxGeometry x="96" width="27" height="30" as="geometry" />
        </mxCell>
        <mxCell id="B8EaVAHdHB4vTxpewh6I-35" value="" style="group" parent="1" vertex="1" connectable="0">
          <mxGeometry x="120" y="1020" width="130" height="120" as="geometry" />
        </mxCell>
        <mxCell id="B8EaVAHdHB4vTxpewh6I-227" style="edgeStyle=orthogonalEdgeStyle;rounded=0;orthogonalLoop=1;jettySize=auto;html=1;endArrow=none;endFill=0;" parent="B8EaVAHdHB4vTxpewh6I-35" source="B8EaVAHdHB4vTxpewh6I-36" edge="1">
          <mxGeometry relative="1" as="geometry">
            <mxPoint x="-30" y="-100" as="targetPoint" />
            <Array as="points">
              <mxPoint x="-30" y="60" />
              <mxPoint x="-30" y="-100" />
            </Array>
          </mxGeometry>
        </mxCell>
        <mxCell id="B8EaVAHdHB4vTxpewh6I-36" value="&lt;font style=&quot;font-size: 14px;&quot;&gt;Gather&lt;/font&gt;&lt;div style=&quot;font-size: 14px;&quot;&gt;&lt;font style=&quot;font-size: 14px;&quot;&gt;user requirements&lt;/font&gt;&lt;/div&gt;&lt;div style=&quot;font-size: 14px;&quot;&gt;&lt;font style=&quot;font-size: 14px;&quot;&gt;&lt;font style=&quot;font-size: 14px;&quot;&gt;R10,780&lt;/font&gt;&lt;br&gt;&lt;/font&gt;&lt;/div&gt;" style="html=1;whiteSpace=wrap;" parent="B8EaVAHdHB4vTxpewh6I-35" vertex="1">
          <mxGeometry y="30" width="130" height="60" as="geometry" />
        </mxCell>
        <mxCell id="B8EaVAHdHB4vTxpewh6I-37" value="Blessing" style="html=1;whiteSpace=wrap;rounded=0;fillStyle=auto;" parent="B8EaVAHdHB4vTxpewh6I-35" vertex="1">
          <mxGeometry y="90" width="130" height="30" as="geometry" />
        </mxCell>
        <mxCell id="B8EaVAHdHB4vTxpewh6I-38" value="1.1.3" style="text;html=1;align=center;verticalAlign=middle;whiteSpace=wrap;rounded=0;fontSize=19;" parent="B8EaVAHdHB4vTxpewh6I-35" vertex="1">
          <mxGeometry x="96" width="27" height="30" as="geometry" />
        </mxCell>
        <mxCell id="B8EaVAHdHB4vTxpewh6I-39" value="&lt;font style=&quot;font-size: 19px;&quot;&gt;3.1.2&lt;/font&gt;" style="text;html=1;align=center;verticalAlign=middle;resizable=0;points=[];autosize=1;strokeColor=none;fillColor=none;" parent="1" vertex="1">
          <mxGeometry x="380" y="941" width="70" height="40" as="geometry" />
        </mxCell>
        <mxCell id="B8EaVAHdHB4vTxpewh6I-40" value="" style="group" parent="1" vertex="1" connectable="0">
          <mxGeometry x="320" y="540" width="130" height="120" as="geometry" />
        </mxCell>
        <mxCell id="B8EaVAHdHB4vTxpewh6I-41" value="&lt;font style=&quot;font-size: 14px;&quot; face=&quot;Helvetica&quot;&gt;Team &lt;/font&gt;&lt;font style=&quot;font-size: 14px;&quot; face=&quot;Helvetica&quot;&gt;organisation&lt;/font&gt;&lt;div style=&quot;font-size: 14px;&quot;&gt;&lt;font style=&quot;font-size: 14px;&quot; face=&quot;Helvetica&quot;&gt;R29,520&lt;br&gt;&lt;/font&gt;&lt;/div&gt;" style="html=1;whiteSpace=wrap;" parent="B8EaVAHdHB4vTxpewh6I-40" vertex="1">
          <mxGeometry y="30" width="130" height="60" as="geometry" />
        </mxCell>
        <mxCell id="B8EaVAHdHB4vTxpewh6I-42" value="Kaushil" style="html=1;whiteSpace=wrap;rounded=0;fillStyle=auto;" parent="B8EaVAHdHB4vTxpewh6I-40" vertex="1">
          <mxGeometry y="90" width="130" height="30" as="geometry" />
        </mxCell>
        <mxCell id="B8EaVAHdHB4vTxpewh6I-43" value="1.2" style="text;html=1;align=center;verticalAlign=middle;whiteSpace=wrap;rounded=0;fontSize=19;" parent="B8EaVAHdHB4vTxpewh6I-40" vertex="1">
          <mxGeometry x="103" width="27" height="30" as="geometry" />
        </mxCell>
        <mxCell id="B8EaVAHdHB4vTxpewh6I-44" value="" style="group" parent="1" vertex="1" connectable="0">
          <mxGeometry x="320" y="700" width="130" height="120" as="geometry" />
        </mxCell>
        <mxCell id="B8EaVAHdHB4vTxpewh6I-45" value="&lt;div style=&quot;font-size: 14px;&quot;&gt;&lt;font style=&quot;font-size: 14px;&quot;&gt;Hire&amp;nbsp;&lt;span style=&quot;background-color: initial;&quot;&gt;talent&lt;/span&gt;&lt;/font&gt;&lt;/div&gt;&lt;div style=&quot;font-size: 14px;&quot;&gt;&lt;font style=&quot;font-size: 14px;&quot;&gt;&lt;span style=&quot;background-color: initial;&quot;&gt;R22,140&lt;br&gt;&lt;/span&gt;&lt;/font&gt;&lt;/div&gt;" style="html=1;whiteSpace=wrap;" parent="B8EaVAHdHB4vTxpewh6I-44" vertex="1">
          <mxGeometry y="30" width="130" height="60" as="geometry" />
        </mxCell>
        <mxCell id="B8EaVAHdHB4vTxpewh6I-46" value="Blessing" style="html=1;whiteSpace=wrap;rounded=0;fillStyle=auto;" parent="B8EaVAHdHB4vTxpewh6I-44" vertex="1">
          <mxGeometry y="90" width="130" height="30" as="geometry" />
        </mxCell>
        <mxCell id="B8EaVAHdHB4vTxpewh6I-47" value="1.2.1" style="text;html=1;align=center;verticalAlign=middle;whiteSpace=wrap;rounded=0;fontSize=19;" parent="B8EaVAHdHB4vTxpewh6I-44" vertex="1">
          <mxGeometry x="96" width="27" height="30" as="geometry" />
        </mxCell>
        <mxCell id="B8EaVAHdHB4vTxpewh6I-48" value="" style="group" parent="1" vertex="1" connectable="0">
          <mxGeometry x="320" y="859" width="130" height="120" as="geometry" />
        </mxCell>
        <mxCell id="B8EaVAHdHB4vTxpewh6I-49" value="&lt;font style=&quot;font-size: 14px;&quot;&gt;Define&amp;nbsp;&lt;/font&gt;&lt;div style=&quot;font-size: 14px;&quot;&gt;&lt;font style=&quot;font-size: 14px;&quot;&gt;team roles&lt;/font&gt;&lt;/div&gt;&lt;div style=&quot;font-size: 14px;&quot;&gt;&lt;font style=&quot;font-size: 14px;&quot;&gt;&lt;font style=&quot;font-size: 14px;&quot;&gt;R2,214&lt;/font&gt;&lt;br&gt;&lt;/font&gt;&lt;/div&gt;" style="html=1;whiteSpace=wrap;" parent="B8EaVAHdHB4vTxpewh6I-48" vertex="1">
          <mxGeometry y="30" width="130" height="60" as="geometry" />
        </mxCell>
        <mxCell id="B8EaVAHdHB4vTxpewh6I-229" style="edgeStyle=orthogonalEdgeStyle;rounded=0;orthogonalLoop=1;jettySize=auto;html=1;endArrow=none;endFill=0;" parent="B8EaVAHdHB4vTxpewh6I-48" source="B8EaVAHdHB4vTxpewh6I-50" edge="1">
          <mxGeometry relative="1" as="geometry">
            <mxPoint x="-30" y="-99" as="targetPoint" />
          </mxGeometry>
        </mxCell>
        <mxCell id="B8EaVAHdHB4vTxpewh6I-50" value="Avish" style="html=1;whiteSpace=wrap;rounded=0;fillStyle=auto;" parent="B8EaVAHdHB4vTxpewh6I-48" vertex="1">
          <mxGeometry y="90" width="130" height="30" as="geometry" />
        </mxCell>
        <mxCell id="B8EaVAHdHB4vTxpewh6I-51" value="1.2.2" style="text;html=1;align=center;verticalAlign=middle;whiteSpace=wrap;rounded=0;fontSize=19;" parent="B8EaVAHdHB4vTxpewh6I-48" vertex="1">
          <mxGeometry x="96" width="27" height="30" as="geometry" />
        </mxCell>
        <mxCell id="B8EaVAHdHB4vTxpewh6I-52" value="" style="group" parent="1" vertex="1" connectable="0">
          <mxGeometry x="320" y="1020" width="130" height="120" as="geometry" />
        </mxCell>
        <mxCell id="B8EaVAHdHB4vTxpewh6I-280" style="edgeStyle=orthogonalEdgeStyle;rounded=0;orthogonalLoop=1;jettySize=auto;html=1;endArrow=none;endFill=0;" parent="B8EaVAHdHB4vTxpewh6I-52" source="B8EaVAHdHB4vTxpewh6I-53" edge="1">
          <mxGeometry relative="1" as="geometry">
            <mxPoint x="-30" y="-60" as="targetPoint" />
            <Array as="points">
              <mxPoint x="-30" y="60" />
            </Array>
          </mxGeometry>
        </mxCell>
        <mxCell id="B8EaVAHdHB4vTxpewh6I-53" value="&lt;div style=&quot;font-size: 14px;&quot;&gt;&lt;font style=&quot;font-size: 14px;&quot;&gt;Assign&amp;nbsp;&lt;span style=&quot;background-color: initial;&quot;&gt;t&lt;/span&gt;&lt;span style=&quot;background-color: initial;&quot;&gt;eam responsibilities&lt;/span&gt;&lt;/font&gt;&lt;/div&gt;&lt;div style=&quot;font-size: 14px;&quot;&gt;&lt;font style=&quot;font-size: 14px;&quot;&gt;&lt;span style=&quot;background-color: initial;&quot;&gt;R5,166&lt;br&gt;&lt;/span&gt;&lt;/font&gt;&lt;/div&gt;" style="html=1;whiteSpace=wrap;" parent="B8EaVAHdHB4vTxpewh6I-52" vertex="1">
          <mxGeometry y="30" width="130" height="60" as="geometry" />
        </mxCell>
        <mxCell id="B8EaVAHdHB4vTxpewh6I-54" value="Eben" style="html=1;whiteSpace=wrap;rounded=0;fillStyle=auto;" parent="B8EaVAHdHB4vTxpewh6I-52" vertex="1">
          <mxGeometry y="90" width="130" height="30" as="geometry" />
        </mxCell>
        <mxCell id="B8EaVAHdHB4vTxpewh6I-55" value="1.2.3" style="text;html=1;align=center;verticalAlign=middle;whiteSpace=wrap;rounded=0;fontSize=19;" parent="B8EaVAHdHB4vTxpewh6I-52" vertex="1">
          <mxGeometry x="96" width="27" height="30" as="geometry" />
        </mxCell>
        <mxCell id="B8EaVAHdHB4vTxpewh6I-56" value="&lt;font style=&quot;font-size: 19px;&quot;&gt;3.1.2&lt;/font&gt;" style="text;html=1;align=center;verticalAlign=middle;resizable=0;points=[];autosize=1;strokeColor=none;fillColor=none;" parent="1" vertex="1">
          <mxGeometry x="600" y="941" width="70" height="40" as="geometry" />
        </mxCell>
        <mxCell id="B8EaVAHdHB4vTxpewh6I-57" value="" style="group" parent="1" vertex="1" connectable="0">
          <mxGeometry x="560" y="540" width="130" height="120" as="geometry" />
        </mxCell>
        <mxCell id="B8EaVAHdHB4vTxpewh6I-58" value="&lt;div style=&quot;font-size: 14px;&quot;&gt;&lt;font style=&quot;font-size: 14px;&quot; face=&quot;Helvetica&quot;&gt;Research&lt;/font&gt;&lt;/div&gt;&lt;div style=&quot;font-size: 14px;&quot;&gt;&lt;font style=&quot;font-size: 14px;&quot; face=&quot;Helvetica&quot;&gt;R34,496&lt;br&gt;&lt;/font&gt;&lt;/div&gt;" style="html=1;whiteSpace=wrap;" parent="B8EaVAHdHB4vTxpewh6I-57" vertex="1">
          <mxGeometry y="30" width="130" height="60" as="geometry" />
        </mxCell>
        <mxCell id="B8EaVAHdHB4vTxpewh6I-59" value="Blessing" style="html=1;whiteSpace=wrap;rounded=0;fillStyle=auto;" parent="B8EaVAHdHB4vTxpewh6I-57" vertex="1">
          <mxGeometry y="90" width="130" height="30" as="geometry" />
        </mxCell>
        <mxCell id="B8EaVAHdHB4vTxpewh6I-60" value="2.1" style="text;html=1;align=center;verticalAlign=middle;whiteSpace=wrap;rounded=0;fontSize=19;" parent="B8EaVAHdHB4vTxpewh6I-57" vertex="1">
          <mxGeometry x="103" width="27" height="30" as="geometry" />
        </mxCell>
        <mxCell id="B8EaVAHdHB4vTxpewh6I-61" value="" style="group" parent="1" vertex="1" connectable="0">
          <mxGeometry x="560" y="700" width="130" height="120" as="geometry" />
        </mxCell>
        <mxCell id="B8EaVAHdHB4vTxpewh6I-62" value="&lt;font style=&quot;font-size: 14px;&quot;&gt;Evaluate&amp;nbsp;&lt;/font&gt;&lt;div style=&quot;font-size: 14px;&quot;&gt;&lt;font style=&quot;font-size: 14px;&quot;&gt;potential risks&lt;/font&gt;&lt;/div&gt;&lt;div style=&quot;font-size: 14px;&quot;&gt;&lt;font style=&quot;font-size: 14px;&quot;&gt;&lt;font style=&quot;font-size: 14px;&quot;&gt;R15,400&lt;/font&gt;&lt;br&gt;&lt;/font&gt;&lt;/div&gt;" style="html=1;whiteSpace=wrap;" parent="B8EaVAHdHB4vTxpewh6I-61" vertex="1">
          <mxGeometry y="30" width="130" height="60" as="geometry" />
        </mxCell>
        <mxCell id="B8EaVAHdHB4vTxpewh6I-63" value="Eben" style="html=1;whiteSpace=wrap;rounded=0;fillStyle=auto;" parent="B8EaVAHdHB4vTxpewh6I-61" vertex="1">
          <mxGeometry y="90" width="130" height="30" as="geometry" />
        </mxCell>
        <mxCell id="B8EaVAHdHB4vTxpewh6I-64" value="2.1.1" style="text;html=1;align=center;verticalAlign=middle;whiteSpace=wrap;rounded=0;fontSize=19;" parent="B8EaVAHdHB4vTxpewh6I-61" vertex="1">
          <mxGeometry x="96" width="27" height="30" as="geometry" />
        </mxCell>
        <mxCell id="B8EaVAHdHB4vTxpewh6I-65" value="" style="group" parent="1" vertex="1" connectable="0">
          <mxGeometry x="560" y="860" width="130" height="120" as="geometry" />
        </mxCell>
        <mxCell id="B8EaVAHdHB4vTxpewh6I-237" style="edgeStyle=orthogonalEdgeStyle;rounded=0;orthogonalLoop=1;jettySize=auto;html=1;endArrow=none;endFill=0;" parent="B8EaVAHdHB4vTxpewh6I-65" source="B8EaVAHdHB4vTxpewh6I-66" edge="1">
          <mxGeometry relative="1" as="geometry">
            <mxPoint x="-30" y="-100" as="targetPoint" />
            <Array as="points">
              <mxPoint x="-30" y="60" />
            </Array>
          </mxGeometry>
        </mxCell>
        <mxCell id="B8EaVAHdHB4vTxpewh6I-66" value="&lt;font style=&quot;font-size: 14px;&quot;&gt;Research&amp;nbsp;&lt;/font&gt;&lt;div style=&quot;font-size: 14px;&quot;&gt;&lt;font style=&quot;font-size: 14px;&quot;&gt;risk reduction techniques&lt;/font&gt;&lt;/div&gt;&lt;div style=&quot;font-size: 14px;&quot;&gt;&lt;font style=&quot;font-size: 14px;&quot;&gt;&lt;font style=&quot;font-size: 14px;&quot;&gt;R15,400&lt;/font&gt;&lt;br&gt;&lt;/font&gt;&lt;/div&gt;" style="html=1;whiteSpace=wrap;" parent="B8EaVAHdHB4vTxpewh6I-65" vertex="1">
          <mxGeometry y="20" width="130" height="70" as="geometry" />
        </mxCell>
        <mxCell id="B8EaVAHdHB4vTxpewh6I-67" value="Avish" style="html=1;whiteSpace=wrap;rounded=0;fillStyle=auto;" parent="B8EaVAHdHB4vTxpewh6I-65" vertex="1">
          <mxGeometry y="90" width="130" height="30" as="geometry" />
        </mxCell>
        <mxCell id="B8EaVAHdHB4vTxpewh6I-68" value="2.1.2" style="text;html=1;align=center;verticalAlign=middle;whiteSpace=wrap;rounded=0;fontSize=19;" parent="B8EaVAHdHB4vTxpewh6I-65" vertex="1">
          <mxGeometry x="100" y="-10" width="27" height="30" as="geometry" />
        </mxCell>
        <mxCell id="B8EaVAHdHB4vTxpewh6I-69" value="" style="group" parent="1" vertex="1" connectable="0">
          <mxGeometry x="560" y="1020" width="130" height="120" as="geometry" />
        </mxCell>
        <mxCell id="B8EaVAHdHB4vTxpewh6I-240" style="edgeStyle=orthogonalEdgeStyle;rounded=0;orthogonalLoop=1;jettySize=auto;html=1;endArrow=none;endFill=0;" parent="B8EaVAHdHB4vTxpewh6I-69" source="B8EaVAHdHB4vTxpewh6I-70" edge="1">
          <mxGeometry relative="1" as="geometry">
            <mxPoint x="-30" y="-100" as="targetPoint" />
            <Array as="points">
              <mxPoint x="-30" y="60" />
            </Array>
          </mxGeometry>
        </mxCell>
        <mxCell id="B8EaVAHdHB4vTxpewh6I-70" value="&lt;div style=&quot;font-size: 14px;&quot;&gt;&lt;font style=&quot;font-size: 14px;&quot;&gt;Create&amp;nbsp;&lt;span style=&quot;background-color: initial;&quot;&gt;report&lt;/span&gt;&lt;/font&gt;&lt;/div&gt;&lt;div style=&quot;font-size: 14px;&quot;&gt;&lt;font style=&quot;font-size: 14px;&quot;&gt;&lt;span style=&quot;background-color: initial;&quot;&gt;R3,692&lt;br&gt;&lt;/span&gt;&lt;/font&gt;&lt;/div&gt;" style="html=1;whiteSpace=wrap;" parent="B8EaVAHdHB4vTxpewh6I-69" vertex="1">
          <mxGeometry y="30" width="130" height="60" as="geometry" />
        </mxCell>
        <mxCell id="B8EaVAHdHB4vTxpewh6I-71" value="Kaushil" style="html=1;whiteSpace=wrap;rounded=0;fillStyle=auto;" parent="B8EaVAHdHB4vTxpewh6I-69" vertex="1">
          <mxGeometry y="90" width="130" height="30" as="geometry" />
        </mxCell>
        <mxCell id="B8EaVAHdHB4vTxpewh6I-72" value="2.1.3" style="text;html=1;align=center;verticalAlign=middle;whiteSpace=wrap;rounded=0;fontSize=19;" parent="B8EaVAHdHB4vTxpewh6I-69" vertex="1">
          <mxGeometry x="96" width="27" height="30" as="geometry" />
        </mxCell>
        <mxCell id="B8EaVAHdHB4vTxpewh6I-73" value="&lt;font style=&quot;font-size: 19px;&quot;&gt;3.1.2&lt;/font&gt;" style="text;html=1;align=center;verticalAlign=middle;resizable=0;points=[];autosize=1;strokeColor=none;fillColor=none;" parent="1" vertex="1">
          <mxGeometry x="800" y="941" width="70" height="40" as="geometry" />
        </mxCell>
        <mxCell id="B8EaVAHdHB4vTxpewh6I-74" value="" style="group" parent="1" vertex="1" connectable="0">
          <mxGeometry x="760" y="540" width="130" height="120" as="geometry" />
        </mxCell>
        <mxCell id="B8EaVAHdHB4vTxpewh6I-75" value="&lt;div style=&quot;font-size: 14px;&quot;&gt;&lt;font style=&quot;font-size: 14px;&quot; face=&quot;Helvetica&quot;&gt;Implementation&lt;/font&gt;&lt;/div&gt;&lt;div style=&quot;font-size: 14px;&quot;&gt;&lt;font style=&quot;font-size: 14px;&quot; face=&quot;Helvetica&quot;&gt;R36,036&lt;br&gt;&lt;/font&gt;&lt;/div&gt;" style="html=1;whiteSpace=wrap;" parent="B8EaVAHdHB4vTxpewh6I-74" vertex="1">
          <mxGeometry y="30" width="130" height="60" as="geometry" />
        </mxCell>
        <mxCell id="B8EaVAHdHB4vTxpewh6I-76" value="Avish" style="html=1;whiteSpace=wrap;rounded=0;fillStyle=auto;" parent="B8EaVAHdHB4vTxpewh6I-74" vertex="1">
          <mxGeometry y="90" width="130" height="30" as="geometry" />
        </mxCell>
        <mxCell id="B8EaVAHdHB4vTxpewh6I-77" value="2.2" style="text;html=1;align=center;verticalAlign=middle;whiteSpace=wrap;rounded=0;fontSize=19;" parent="B8EaVAHdHB4vTxpewh6I-74" vertex="1">
          <mxGeometry x="103" width="27" height="30" as="geometry" />
        </mxCell>
        <mxCell id="B8EaVAHdHB4vTxpewh6I-78" value="" style="group" parent="1" vertex="1" connectable="0">
          <mxGeometry x="760" y="698" width="130" height="120" as="geometry" />
        </mxCell>
        <mxCell id="B8EaVAHdHB4vTxpewh6I-79" value="&lt;font style=&quot;font-size: 14px;&quot;&gt;Employee&lt;/font&gt;&lt;div style=&quot;font-size: 14px;&quot;&gt;&lt;font style=&quot;font-size: 14px;&quot;&gt;awareness training&lt;/font&gt;&lt;/div&gt;&lt;div style=&quot;font-size: 14px;&quot;&gt;&lt;font style=&quot;font-size: 14px;&quot;&gt;&lt;font style=&quot;font-size: 14px;&quot;&gt;R25,872&lt;/font&gt;&lt;br&gt;&lt;/font&gt;&lt;/div&gt;" style="html=1;whiteSpace=wrap;" parent="B8EaVAHdHB4vTxpewh6I-78" vertex="1">
          <mxGeometry y="30" width="130" height="60" as="geometry" />
        </mxCell>
        <mxCell id="B8EaVAHdHB4vTxpewh6I-80" value="Blessing" style="html=1;whiteSpace=wrap;rounded=0;fillStyle=auto;" parent="B8EaVAHdHB4vTxpewh6I-78" vertex="1">
          <mxGeometry y="90" width="130" height="30" as="geometry" />
        </mxCell>
        <mxCell id="B8EaVAHdHB4vTxpewh6I-81" value="2.1.2" style="text;html=1;align=center;verticalAlign=middle;whiteSpace=wrap;rounded=0;fontSize=19;" parent="B8EaVAHdHB4vTxpewh6I-78" vertex="1">
          <mxGeometry x="96" width="27" height="30" as="geometry" />
        </mxCell>
        <mxCell id="B8EaVAHdHB4vTxpewh6I-82" value="" style="group" parent="1" vertex="1" connectable="0">
          <mxGeometry x="760" y="859" width="130" height="120" as="geometry" />
        </mxCell>
        <mxCell id="B8EaVAHdHB4vTxpewh6I-276" style="edgeStyle=orthogonalEdgeStyle;rounded=0;orthogonalLoop=1;jettySize=auto;html=1;endArrow=none;endFill=0;" parent="B8EaVAHdHB4vTxpewh6I-82" source="B8EaVAHdHB4vTxpewh6I-83" edge="1">
          <mxGeometry relative="1" as="geometry">
            <mxPoint x="-30" y="-109" as="targetPoint" />
            <Array as="points">
              <mxPoint x="-30" y="60" />
              <mxPoint x="-30" y="-99" />
            </Array>
          </mxGeometry>
        </mxCell>
        <mxCell id="B8EaVAHdHB4vTxpewh6I-83" value="&lt;font style=&quot;font-size: 14px;&quot;&gt;Create&amp;nbsp;&lt;/font&gt;&lt;div style=&quot;font-size: 14px;&quot;&gt;&lt;font style=&quot;font-size: 14px;&quot;&gt;Plan of Action&lt;/font&gt;&lt;/div&gt;&lt;div style=&quot;font-size: 14px;&quot;&gt;&lt;font style=&quot;font-size: 14px;&quot;&gt;&lt;font style=&quot;font-size: 14px;&quot;&gt;R3,696&lt;/font&gt;&lt;br&gt;&lt;/font&gt;&lt;/div&gt;" style="html=1;whiteSpace=wrap;" parent="B8EaVAHdHB4vTxpewh6I-82" vertex="1">
          <mxGeometry y="30" width="130" height="60" as="geometry" />
        </mxCell>
        <mxCell id="B8EaVAHdHB4vTxpewh6I-84" value="Kaushil" style="html=1;whiteSpace=wrap;rounded=0;fillStyle=auto;" parent="B8EaVAHdHB4vTxpewh6I-82" vertex="1">
          <mxGeometry y="90" width="130" height="30" as="geometry" />
        </mxCell>
        <mxCell id="B8EaVAHdHB4vTxpewh6I-85" value="2.1.3" style="text;html=1;align=center;verticalAlign=middle;whiteSpace=wrap;rounded=0;fontSize=19;" parent="B8EaVAHdHB4vTxpewh6I-82" vertex="1">
          <mxGeometry x="96" width="27" height="30" as="geometry" />
        </mxCell>
        <mxCell id="B8EaVAHdHB4vTxpewh6I-86" value="" style="group" parent="1" vertex="1" connectable="0">
          <mxGeometry x="760" y="1020" width="130" height="120" as="geometry" />
        </mxCell>
        <mxCell id="B8EaVAHdHB4vTxpewh6I-277" style="edgeStyle=orthogonalEdgeStyle;rounded=0;orthogonalLoop=1;jettySize=auto;html=1;endArrow=none;endFill=0;" parent="B8EaVAHdHB4vTxpewh6I-86" source="B8EaVAHdHB4vTxpewh6I-87" edge="1">
          <mxGeometry relative="1" as="geometry">
            <mxPoint x="-30" y="-110" as="targetPoint" />
            <Array as="points">
              <mxPoint x="-30" y="60" />
              <mxPoint x="-30" y="-100" />
            </Array>
          </mxGeometry>
        </mxCell>
        <mxCell id="B8EaVAHdHB4vTxpewh6I-87" value="&lt;font style=&quot;font-size: 14px;&quot;&gt;Test&amp;nbsp;&lt;/font&gt;&lt;div style=&quot;font-size: 14px;&quot;&gt;&lt;font style=&quot;font-size: 14px;&quot;&gt;Plan of Action&lt;/font&gt;&lt;/div&gt;&lt;div style=&quot;font-size: 14px;&quot;&gt;&lt;font style=&quot;font-size: 14px;&quot;&gt;&lt;font style=&quot;font-size: 14px;&quot;&gt;R6,468&lt;/font&gt;&lt;br&gt;&lt;/font&gt;&lt;/div&gt;" style="html=1;whiteSpace=wrap;" parent="B8EaVAHdHB4vTxpewh6I-86" vertex="1">
          <mxGeometry y="30" width="130" height="60" as="geometry" />
        </mxCell>
        <mxCell id="B8EaVAHdHB4vTxpewh6I-88" value="Eben" style="html=1;whiteSpace=wrap;rounded=0;fillStyle=auto;" parent="B8EaVAHdHB4vTxpewh6I-86" vertex="1">
          <mxGeometry y="90" width="130" height="30" as="geometry" />
        </mxCell>
        <mxCell id="B8EaVAHdHB4vTxpewh6I-89" value="2.1.3" style="text;html=1;align=center;verticalAlign=middle;whiteSpace=wrap;rounded=0;fontSize=19;" parent="B8EaVAHdHB4vTxpewh6I-86" vertex="1">
          <mxGeometry x="96" width="27" height="30" as="geometry" />
        </mxCell>
        <mxCell id="B8EaVAHdHB4vTxpewh6I-90" value="&lt;font style=&quot;font-size: 19px;&quot;&gt;3.1.2&lt;/font&gt;" style="text;html=1;align=center;verticalAlign=middle;resizable=0;points=[];autosize=1;strokeColor=none;fillColor=none;" parent="1" vertex="1">
          <mxGeometry x="1260" y="902" width="70" height="40" as="geometry" />
        </mxCell>
        <mxCell id="B8EaVAHdHB4vTxpewh6I-91" value="" style="group" parent="1" vertex="1" connectable="0">
          <mxGeometry x="1200" y="540" width="130" height="120" as="geometry" />
        </mxCell>
        <mxCell id="B8EaVAHdHB4vTxpewh6I-92" value="&lt;font style=&quot;font-size: 14px;&quot; face=&quot;Helvetica&quot;&gt;User&lt;/font&gt;&lt;div style=&quot;font-size: 14px;&quot;&gt;&lt;font style=&quot;font-size: 14px;&quot; face=&quot;Helvetica&quot;&gt;Registration page&lt;/font&gt;&lt;/div&gt;&lt;div style=&quot;font-size: 14px;&quot;&gt;&lt;font style=&quot;font-size: 14px;&quot; face=&quot;Helvetica&quot;&gt;R19,292&lt;br&gt;&lt;/font&gt;&lt;/div&gt;" style="html=1;whiteSpace=wrap;" parent="B8EaVAHdHB4vTxpewh6I-91" vertex="1">
          <mxGeometry y="30" width="130" height="60" as="geometry" />
        </mxCell>
        <mxCell id="B8EaVAHdHB4vTxpewh6I-93" value="Kaushil" style="html=1;whiteSpace=wrap;rounded=0;fillStyle=auto;" parent="B8EaVAHdHB4vTxpewh6I-91" vertex="1">
          <mxGeometry y="90" width="130" height="30" as="geometry" />
        </mxCell>
        <mxCell id="B8EaVAHdHB4vTxpewh6I-94" value="3.2" style="text;html=1;align=center;verticalAlign=middle;whiteSpace=wrap;rounded=0;fontSize=19;" parent="B8EaVAHdHB4vTxpewh6I-91" vertex="1">
          <mxGeometry x="103" width="27" height="30" as="geometry" />
        </mxCell>
        <mxCell id="B8EaVAHdHB4vTxpewh6I-95" value="" style="group" parent="1" vertex="1" connectable="0">
          <mxGeometry x="1200" y="700" width="130" height="120" as="geometry" />
        </mxCell>
        <mxCell id="B8EaVAHdHB4vTxpewh6I-96" value="&lt;font style=&quot;font-size: 14px;&quot;&gt;Create&amp;nbsp;&lt;/font&gt;&lt;div style=&quot;font-size: 14px;&quot;&gt;&lt;font style=&quot;font-size: 14px;&quot;&gt;r&lt;span style=&quot;background-color: initial;&quot;&gt;ough&amp;nbsp;&lt;/span&gt;&lt;span style=&quot;background-color: initial;&quot;&gt;sketch&lt;/span&gt;&lt;/font&gt;&lt;/div&gt;&lt;div style=&quot;font-size: 14px;&quot;&gt;&lt;font style=&quot;font-size: 14px;&quot;&gt;&lt;span style=&quot;background-color: initial;&quot;&gt;R2,968&lt;br&gt;&lt;/span&gt;&lt;/font&gt;&lt;/div&gt;" style="html=1;whiteSpace=wrap;" parent="B8EaVAHdHB4vTxpewh6I-95" vertex="1">
          <mxGeometry y="30" width="130" height="60" as="geometry" />
        </mxCell>
        <mxCell id="B8EaVAHdHB4vTxpewh6I-97" value="Eben" style="html=1;whiteSpace=wrap;rounded=0;fillStyle=auto;" parent="B8EaVAHdHB4vTxpewh6I-95" vertex="1">
          <mxGeometry y="90" width="130" height="30" as="geometry" />
        </mxCell>
        <mxCell id="B8EaVAHdHB4vTxpewh6I-98" value="3.2.1" style="text;html=1;align=center;verticalAlign=middle;whiteSpace=wrap;rounded=0;fontSize=19;" parent="B8EaVAHdHB4vTxpewh6I-95" vertex="1">
          <mxGeometry x="96" width="27" height="30" as="geometry" />
        </mxCell>
        <mxCell id="B8EaVAHdHB4vTxpewh6I-99" value="" style="group" parent="1" vertex="1" connectable="0">
          <mxGeometry x="1200" y="860" width="130" height="120" as="geometry" />
        </mxCell>
        <mxCell id="B8EaVAHdHB4vTxpewh6I-273" style="edgeStyle=orthogonalEdgeStyle;rounded=0;orthogonalLoop=1;jettySize=auto;html=1;endArrow=none;endFill=0;" parent="B8EaVAHdHB4vTxpewh6I-99" source="B8EaVAHdHB4vTxpewh6I-100" edge="1">
          <mxGeometry relative="1" as="geometry">
            <mxPoint x="-30" y="-100" as="targetPoint" />
            <Array as="points">
              <mxPoint x="-30" y="60" />
              <mxPoint x="-30" y="-100" />
            </Array>
          </mxGeometry>
        </mxCell>
        <mxCell id="B8EaVAHdHB4vTxpewh6I-100" value="&lt;div style=&quot;font-size: 14px;&quot;&gt;&lt;font style=&quot;font-size: 14px;&quot;&gt;Create&amp;nbsp;&lt;span style=&quot;background-color: initial;&quot;&gt;wireframe&lt;/span&gt;&lt;/font&gt;&lt;/div&gt;&lt;div style=&quot;font-size: 14px;&quot;&gt;&lt;font style=&quot;font-size: 14px;&quot;&gt;&lt;span style=&quot;background-color: initial;&quot;&gt;R5,936&lt;br&gt;&lt;/span&gt;&lt;/font&gt;&lt;/div&gt;" style="html=1;whiteSpace=wrap;" parent="B8EaVAHdHB4vTxpewh6I-99" vertex="1">
          <mxGeometry y="30" width="130" height="60" as="geometry" />
        </mxCell>
        <mxCell id="B8EaVAHdHB4vTxpewh6I-101" value="Avish" style="html=1;whiteSpace=wrap;rounded=0;fillStyle=auto;" parent="B8EaVAHdHB4vTxpewh6I-99" vertex="1">
          <mxGeometry y="90" width="130" height="30" as="geometry" />
        </mxCell>
        <mxCell id="B8EaVAHdHB4vTxpewh6I-102" value="3.2.2" style="text;html=1;align=center;verticalAlign=middle;whiteSpace=wrap;rounded=0;fontSize=19;" parent="B8EaVAHdHB4vTxpewh6I-99" vertex="1">
          <mxGeometry x="96" width="27" height="30" as="geometry" />
        </mxCell>
        <mxCell id="B8EaVAHdHB4vTxpewh6I-103" value="" style="group" parent="1" vertex="1" connectable="0">
          <mxGeometry x="1200" y="1020" width="130" height="120" as="geometry" />
        </mxCell>
        <mxCell id="B8EaVAHdHB4vTxpewh6I-274" style="edgeStyle=orthogonalEdgeStyle;rounded=0;orthogonalLoop=1;jettySize=auto;html=1;endArrow=none;endFill=0;" parent="B8EaVAHdHB4vTxpewh6I-103" source="B8EaVAHdHB4vTxpewh6I-104" edge="1">
          <mxGeometry relative="1" as="geometry">
            <mxPoint x="-30" y="-100" as="targetPoint" />
            <Array as="points">
              <mxPoint x="-30" y="60" />
              <mxPoint x="-30" y="-100" />
            </Array>
          </mxGeometry>
        </mxCell>
        <mxCell id="B8EaVAHdHB4vTxpewh6I-104" value="&lt;div style=&quot;font-size: 14px;&quot;&gt;&lt;font style=&quot;font-size: 14px;&quot;&gt;Create&amp;nbsp;&lt;span style=&quot;background-color: initial;&quot;&gt;mockup&lt;/span&gt;&lt;/font&gt;&lt;/div&gt;&lt;div style=&quot;font-size: 14px;&quot;&gt;&lt;font style=&quot;font-size: 14px;&quot;&gt;&lt;span style=&quot;background-color: initial;&quot;&gt;R10,388&lt;br&gt;&lt;/span&gt;&lt;/font&gt;&lt;/div&gt;" style="html=1;whiteSpace=wrap;" parent="B8EaVAHdHB4vTxpewh6I-103" vertex="1">
          <mxGeometry y="30" width="130" height="60" as="geometry" />
        </mxCell>
        <mxCell id="B8EaVAHdHB4vTxpewh6I-105" value="Blessing" style="html=1;whiteSpace=wrap;rounded=0;fillStyle=auto;" parent="B8EaVAHdHB4vTxpewh6I-103" vertex="1">
          <mxGeometry y="90" width="130" height="30" as="geometry" />
        </mxCell>
        <mxCell id="B8EaVAHdHB4vTxpewh6I-106" value="3.2.3" style="text;html=1;align=center;verticalAlign=middle;whiteSpace=wrap;rounded=0;fontSize=19;" parent="B8EaVAHdHB4vTxpewh6I-103" vertex="1">
          <mxGeometry x="96" width="27" height="30" as="geometry" />
        </mxCell>
        <mxCell id="B8EaVAHdHB4vTxpewh6I-107" value="&lt;font style=&quot;font-size: 19px;&quot;&gt;3.1.2&lt;/font&gt;" style="text;html=1;align=center;verticalAlign=middle;resizable=0;points=[];autosize=1;strokeColor=none;fillColor=none;" parent="1" vertex="1">
          <mxGeometry x="1500" y="902" width="70" height="40" as="geometry" />
        </mxCell>
        <mxCell id="B8EaVAHdHB4vTxpewh6I-108" value="" style="group" parent="1" vertex="1" connectable="0">
          <mxGeometry x="1440" y="540" width="130" height="120" as="geometry" />
        </mxCell>
        <mxCell id="B8EaVAHdHB4vTxpewh6I-109" value="&lt;font style=&quot;font-size: 14px;&quot;&gt;Build&amp;nbsp;&lt;/font&gt;&lt;div style=&quot;font-size: 14px;&quot;&gt;&lt;font style=&quot;font-size: 14px;&quot;&gt;Sprint 1&lt;/font&gt;&lt;/div&gt;&lt;div style=&quot;font-size: 14px;&quot;&gt;&lt;font style=&quot;font-size: 14px;&quot;&gt;&lt;font style=&quot;font-size: 14px;&quot;&gt;R331,296&lt;/font&gt;&lt;br&gt;&lt;/font&gt;&lt;/div&gt;" style="html=1;whiteSpace=wrap;" parent="B8EaVAHdHB4vTxpewh6I-108" vertex="1">
          <mxGeometry y="30" width="130" height="60" as="geometry" />
        </mxCell>
        <mxCell id="B8EaVAHdHB4vTxpewh6I-110" value="Blessing" style="html=1;whiteSpace=wrap;rounded=0;fillStyle=auto;" parent="B8EaVAHdHB4vTxpewh6I-108" vertex="1">
          <mxGeometry y="90" width="130" height="30" as="geometry" />
        </mxCell>
        <mxCell id="B8EaVAHdHB4vTxpewh6I-111" value="4.1" style="text;html=1;align=center;verticalAlign=middle;whiteSpace=wrap;rounded=0;fontSize=19;" parent="B8EaVAHdHB4vTxpewh6I-108" vertex="1">
          <mxGeometry x="103" width="27" height="30" as="geometry" />
        </mxCell>
        <mxCell id="B8EaVAHdHB4vTxpewh6I-112" value="" style="group" parent="1" vertex="1" connectable="0">
          <mxGeometry x="1440" y="700" width="130" height="120" as="geometry" />
        </mxCell>
        <mxCell id="B8EaVAHdHB4vTxpewh6I-113" value="&lt;font style=&quot;font-size: 14px;&quot;&gt;API&amp;nbsp;&lt;/font&gt;&lt;div style=&quot;font-size: 14px;&quot;&gt;&lt;font style=&quot;font-size: 14px;&quot;&gt;implementation&lt;/font&gt;&lt;/div&gt;&lt;div style=&quot;font-size: 14px;&quot;&gt;&lt;font style=&quot;font-size: 14px;&quot;&gt;&lt;font style=&quot;font-size: 14px;&quot;&gt;R110,376&lt;/font&gt;&lt;br&gt;&lt;/font&gt;&lt;/div&gt;" style="html=1;whiteSpace=wrap;" parent="B8EaVAHdHB4vTxpewh6I-112" vertex="1">
          <mxGeometry y="30" width="130" height="60" as="geometry" />
        </mxCell>
        <mxCell id="B8EaVAHdHB4vTxpewh6I-114" value="Avish" style="html=1;whiteSpace=wrap;rounded=0;fillStyle=auto;" parent="B8EaVAHdHB4vTxpewh6I-112" vertex="1">
          <mxGeometry y="90" width="130" height="30" as="geometry" />
        </mxCell>
        <mxCell id="B8EaVAHdHB4vTxpewh6I-115" value="4.1.1" style="text;html=1;align=center;verticalAlign=middle;whiteSpace=wrap;rounded=0;fontSize=19;" parent="B8EaVAHdHB4vTxpewh6I-112" vertex="1">
          <mxGeometry x="96" width="27" height="30" as="geometry" />
        </mxCell>
        <mxCell id="B8EaVAHdHB4vTxpewh6I-116" value="" style="group" parent="1" vertex="1" connectable="0">
          <mxGeometry x="1440" y="860" width="130" height="120" as="geometry" />
        </mxCell>
        <mxCell id="B8EaVAHdHB4vTxpewh6I-259" style="edgeStyle=orthogonalEdgeStyle;rounded=0;orthogonalLoop=1;jettySize=auto;html=1;endArrow=none;endFill=0;" parent="B8EaVAHdHB4vTxpewh6I-116" source="B8EaVAHdHB4vTxpewh6I-117" edge="1">
          <mxGeometry relative="1" as="geometry">
            <mxPoint x="-30" y="-100" as="targetPoint" />
            <Array as="points">
              <mxPoint x="-30" y="60" />
              <mxPoint x="-30" y="-100" />
            </Array>
          </mxGeometry>
        </mxCell>
        <mxCell id="B8EaVAHdHB4vTxpewh6I-117" value="&lt;font style=&quot;font-size: 14px;&quot;&gt;Data&lt;/font&gt;&lt;div style=&quot;font-size: 14px;&quot;&gt;&lt;font style=&quot;font-size: 14px;&quot;&gt;manipulation&lt;/font&gt;&lt;/div&gt;&lt;div style=&quot;font-size: 14px;&quot;&gt;&lt;font style=&quot;font-size: 14px;&quot;&gt;&lt;font style=&quot;font-size: 14px;&quot;&gt;R183,960&lt;/font&gt;&lt;br&gt;&lt;/font&gt;&lt;/div&gt;" style="html=1;whiteSpace=wrap;" parent="B8EaVAHdHB4vTxpewh6I-116" vertex="1">
          <mxGeometry y="30" width="130" height="60" as="geometry" />
        </mxCell>
        <mxCell id="B8EaVAHdHB4vTxpewh6I-118" value="Eben" style="html=1;whiteSpace=wrap;rounded=0;fillStyle=auto;" parent="B8EaVAHdHB4vTxpewh6I-116" vertex="1">
          <mxGeometry y="90" width="130" height="30" as="geometry" />
        </mxCell>
        <mxCell id="B8EaVAHdHB4vTxpewh6I-119" value="4.1.2" style="text;html=1;align=center;verticalAlign=middle;whiteSpace=wrap;rounded=0;fontSize=19;" parent="B8EaVAHdHB4vTxpewh6I-116" vertex="1">
          <mxGeometry x="96" width="27" height="30" as="geometry" />
        </mxCell>
        <mxCell id="B8EaVAHdHB4vTxpewh6I-120" value="" style="group" parent="1" vertex="1" connectable="0">
          <mxGeometry x="1440" y="1020" width="130" height="120" as="geometry" />
        </mxCell>
        <mxCell id="B8EaVAHdHB4vTxpewh6I-260" style="edgeStyle=orthogonalEdgeStyle;rounded=0;orthogonalLoop=1;jettySize=auto;html=1;endArrow=none;endFill=0;" parent="B8EaVAHdHB4vTxpewh6I-120" source="B8EaVAHdHB4vTxpewh6I-121" edge="1">
          <mxGeometry relative="1" as="geometry">
            <mxPoint x="-30" y="-100" as="targetPoint" />
            <Array as="points">
              <mxPoint x="-30" y="60" />
              <mxPoint x="-30" y="-100" />
            </Array>
          </mxGeometry>
        </mxCell>
        <mxCell id="B8EaVAHdHB4vTxpewh6I-121" value="&lt;font style=&quot;font-size: 14px;&quot;&gt;Code reviews R36,960&lt;/font&gt;" style="html=1;whiteSpace=wrap;" parent="B8EaVAHdHB4vTxpewh6I-120" vertex="1">
          <mxGeometry y="30" width="130" height="60" as="geometry" />
        </mxCell>
        <mxCell id="B8EaVAHdHB4vTxpewh6I-122" value="Kaushil" style="html=1;whiteSpace=wrap;rounded=0;fillStyle=auto;" parent="B8EaVAHdHB4vTxpewh6I-120" vertex="1">
          <mxGeometry y="90" width="130" height="30" as="geometry" />
        </mxCell>
        <mxCell id="B8EaVAHdHB4vTxpewh6I-123" value="4.1.3" style="text;html=1;align=center;verticalAlign=middle;whiteSpace=wrap;rounded=0;fontSize=19;" parent="B8EaVAHdHB4vTxpewh6I-120" vertex="1">
          <mxGeometry x="96" width="27" height="30" as="geometry" />
        </mxCell>
        <mxCell id="B8EaVAHdHB4vTxpewh6I-124" value="&lt;font style=&quot;font-size: 19px;&quot;&gt;3.1.2&lt;/font&gt;" style="text;html=1;align=center;verticalAlign=middle;resizable=0;points=[];autosize=1;strokeColor=none;fillColor=none;" parent="1" vertex="1">
          <mxGeometry x="1700" y="903" width="70" height="40" as="geometry" />
        </mxCell>
        <mxCell id="B8EaVAHdHB4vTxpewh6I-125" value="" style="group" parent="1" vertex="1" connectable="0">
          <mxGeometry x="1641" y="540" width="130" height="120" as="geometry" />
        </mxCell>
        <mxCell id="B8EaVAHdHB4vTxpewh6I-126" value="&lt;font style=&quot;font-size: 14px;&quot;&gt;Build&amp;nbsp;&lt;/font&gt;&lt;div style=&quot;font-size: 14px;&quot;&gt;&lt;font style=&quot;font-size: 14px;&quot;&gt;Sprint 2&lt;/font&gt;&lt;/div&gt;&lt;div style=&quot;font-size: 14px;&quot;&gt;&lt;font style=&quot;font-size: 14px;&quot;&gt;&lt;font style=&quot;font-size: 14px;&quot;&gt;R147,168&lt;/font&gt;&lt;br&gt;&lt;/font&gt;&lt;/div&gt;" style="html=1;whiteSpace=wrap;" parent="B8EaVAHdHB4vTxpewh6I-125" vertex="1">
          <mxGeometry y="30" width="130" height="60" as="geometry" />
        </mxCell>
        <mxCell id="B8EaVAHdHB4vTxpewh6I-127" value="Kaushil" style="html=1;whiteSpace=wrap;rounded=0;fillStyle=auto;" parent="B8EaVAHdHB4vTxpewh6I-125" vertex="1">
          <mxGeometry y="90" width="130" height="30" as="geometry" />
        </mxCell>
        <mxCell id="B8EaVAHdHB4vTxpewh6I-128" value="4.2" style="text;html=1;align=center;verticalAlign=middle;whiteSpace=wrap;rounded=0;fontSize=19;" parent="B8EaVAHdHB4vTxpewh6I-125" vertex="1">
          <mxGeometry x="103" width="27" height="30" as="geometry" />
        </mxCell>
        <mxCell id="B8EaVAHdHB4vTxpewh6I-129" value="" style="group" parent="1" vertex="1" connectable="0">
          <mxGeometry x="1640" y="701" width="130" height="120" as="geometry" />
        </mxCell>
        <mxCell id="B8EaVAHdHB4vTxpewh6I-130" value="&lt;font style=&quot;font-size: 14px;&quot;&gt;Multithreading implementation R73,584&lt;/font&gt;" style="html=1;whiteSpace=wrap;" parent="B8EaVAHdHB4vTxpewh6I-129" vertex="1">
          <mxGeometry y="30" width="130" height="60" as="geometry" />
        </mxCell>
        <mxCell id="B8EaVAHdHB4vTxpewh6I-131" value="Avish" style="html=1;whiteSpace=wrap;rounded=0;fillStyle=auto;" parent="B8EaVAHdHB4vTxpewh6I-129" vertex="1">
          <mxGeometry y="90" width="130" height="30" as="geometry" />
        </mxCell>
        <mxCell id="B8EaVAHdHB4vTxpewh6I-132" value="4.2.1" style="text;html=1;align=center;verticalAlign=middle;whiteSpace=wrap;rounded=0;fontSize=19;" parent="B8EaVAHdHB4vTxpewh6I-129" vertex="1">
          <mxGeometry x="96" width="27" height="30" as="geometry" />
        </mxCell>
        <mxCell id="B8EaVAHdHB4vTxpewh6I-133" value="" style="group" parent="1" vertex="1" connectable="0">
          <mxGeometry x="1640" y="861" width="130" height="120" as="geometry" />
        </mxCell>
        <mxCell id="B8EaVAHdHB4vTxpewh6I-269" style="edgeStyle=orthogonalEdgeStyle;rounded=0;orthogonalLoop=1;jettySize=auto;html=1;endArrow=none;endFill=0;" parent="B8EaVAHdHB4vTxpewh6I-133" source="B8EaVAHdHB4vTxpewh6I-134" edge="1">
          <mxGeometry relative="1" as="geometry">
            <mxPoint x="-30" y="-101" as="targetPoint" />
            <Array as="points">
              <mxPoint x="-30" y="60" />
              <mxPoint x="-30" y="-101" />
            </Array>
          </mxGeometry>
        </mxCell>
        <mxCell id="B8EaVAHdHB4vTxpewh6I-134" value="&lt;font style=&quot;font-size: 14px;&quot;&gt;Usage logging R36,792&lt;/font&gt;" style="html=1;whiteSpace=wrap;" parent="B8EaVAHdHB4vTxpewh6I-133" vertex="1">
          <mxGeometry y="30" width="130" height="60" as="geometry" />
        </mxCell>
        <mxCell id="B8EaVAHdHB4vTxpewh6I-135" value="Blessing" style="html=1;whiteSpace=wrap;rounded=0;fillStyle=auto;" parent="B8EaVAHdHB4vTxpewh6I-133" vertex="1">
          <mxGeometry y="90" width="130" height="30" as="geometry" />
        </mxCell>
        <mxCell id="B8EaVAHdHB4vTxpewh6I-136" value="4.2.2" style="text;html=1;align=center;verticalAlign=middle;whiteSpace=wrap;rounded=0;fontSize=19;" parent="B8EaVAHdHB4vTxpewh6I-133" vertex="1">
          <mxGeometry x="96" width="27" height="30" as="geometry" />
        </mxCell>
        <mxCell id="B8EaVAHdHB4vTxpewh6I-137" value="" style="group" parent="1" vertex="1" connectable="0">
          <mxGeometry x="1641" y="1020" width="130" height="120" as="geometry" />
        </mxCell>
        <mxCell id="B8EaVAHdHB4vTxpewh6I-271" style="edgeStyle=orthogonalEdgeStyle;rounded=0;orthogonalLoop=1;jettySize=auto;html=1;endArrow=none;endFill=0;" parent="B8EaVAHdHB4vTxpewh6I-137" source="B8EaVAHdHB4vTxpewh6I-138" edge="1">
          <mxGeometry relative="1" as="geometry">
            <mxPoint x="-31" y="-100" as="targetPoint" />
            <Array as="points">
              <mxPoint x="-31" y="60" />
              <mxPoint x="-31" y="-100" />
            </Array>
          </mxGeometry>
        </mxCell>
        <mxCell id="B8EaVAHdHB4vTxpewh6I-138" value="&lt;font style=&quot;font-size: 14px;&quot;&gt;Error handling R36,792&lt;/font&gt;" style="html=1;whiteSpace=wrap;" parent="B8EaVAHdHB4vTxpewh6I-137" vertex="1">
          <mxGeometry y="30" width="130" height="60" as="geometry" />
        </mxCell>
        <mxCell id="B8EaVAHdHB4vTxpewh6I-139" value="Eben" style="html=1;whiteSpace=wrap;rounded=0;fillStyle=auto;" parent="B8EaVAHdHB4vTxpewh6I-137" vertex="1">
          <mxGeometry y="90" width="130" height="30" as="geometry" />
        </mxCell>
        <mxCell id="B8EaVAHdHB4vTxpewh6I-140" value="4.2.3" style="text;html=1;align=center;verticalAlign=middle;whiteSpace=wrap;rounded=0;fontSize=19;" parent="B8EaVAHdHB4vTxpewh6I-137" vertex="1">
          <mxGeometry x="96" width="27" height="30" as="geometry" />
        </mxCell>
        <mxCell id="B8EaVAHdHB4vTxpewh6I-141" value="&lt;font style=&quot;font-size: 19px;&quot;&gt;3.1.2&lt;/font&gt;" style="text;html=1;align=center;verticalAlign=middle;resizable=0;points=[];autosize=1;strokeColor=none;fillColor=none;" parent="1" vertex="1">
          <mxGeometry x="1940" y="902" width="70" height="40" as="geometry" />
        </mxCell>
        <mxCell id="B8EaVAHdHB4vTxpewh6I-142" value="" style="group" parent="1" vertex="1" connectable="0">
          <mxGeometry x="1880" y="540" width="130" height="120" as="geometry" />
        </mxCell>
        <mxCell id="B8EaVAHdHB4vTxpewh6I-143" value="&lt;font style=&quot;font-size: 14px;&quot;&gt;Functional&amp;nbsp;&lt;/font&gt;&lt;div style=&quot;font-size: 14px;&quot;&gt;&lt;font style=&quot;font-size: 14px;&quot;&gt;Testing&lt;/font&gt;&lt;/div&gt;&lt;div style=&quot;font-size: 14px;&quot;&gt;&lt;font style=&quot;font-size: 14px;&quot;&gt;&lt;font style=&quot;font-size: 14px;&quot;&gt;R9,600&lt;/font&gt;&lt;br&gt;&lt;/font&gt;&lt;/div&gt;" style="html=1;whiteSpace=wrap;" parent="B8EaVAHdHB4vTxpewh6I-142" vertex="1">
          <mxGeometry y="30" width="130" height="60" as="geometry" />
        </mxCell>
        <mxCell id="B8EaVAHdHB4vTxpewh6I-144" value="Eben" style="html=1;whiteSpace=wrap;rounded=0;fillStyle=auto;" parent="B8EaVAHdHB4vTxpewh6I-142" vertex="1">
          <mxGeometry y="90" width="130" height="30" as="geometry" />
        </mxCell>
        <mxCell id="B8EaVAHdHB4vTxpewh6I-145" value="5.1" style="text;html=1;align=center;verticalAlign=middle;whiteSpace=wrap;rounded=0;fontSize=19;" parent="B8EaVAHdHB4vTxpewh6I-142" vertex="1">
          <mxGeometry x="103" width="27" height="30" as="geometry" />
        </mxCell>
        <mxCell id="B8EaVAHdHB4vTxpewh6I-146" value="" style="group" parent="1" vertex="1" connectable="0">
          <mxGeometry x="1880" y="700" width="130" height="120" as="geometry" />
        </mxCell>
        <mxCell id="B8EaVAHdHB4vTxpewh6I-147" value="&lt;font style=&quot;font-size: 14px;&quot;&gt;Test&amp;nbsp;&lt;/font&gt;&lt;div style=&quot;font-size: 14px;&quot;&gt;&lt;font style=&quot;font-size: 14px;&quot;&gt;location access functionality&lt;/font&gt;&lt;/div&gt;&lt;font style=&quot;font-size: 14px;&quot;&gt;&amp;nbsp;R3,200&lt;/font&gt;" style="html=1;whiteSpace=wrap;" parent="B8EaVAHdHB4vTxpewh6I-146" vertex="1">
          <mxGeometry y="20" width="130" height="70" as="geometry" />
        </mxCell>
        <mxCell id="B8EaVAHdHB4vTxpewh6I-148" value="Kaushil" style="html=1;whiteSpace=wrap;rounded=0;fillStyle=auto;" parent="B8EaVAHdHB4vTxpewh6I-146" vertex="1">
          <mxGeometry y="90" width="130" height="30" as="geometry" />
        </mxCell>
        <mxCell id="B8EaVAHdHB4vTxpewh6I-149" value="5.1.1" style="text;html=1;align=center;verticalAlign=middle;whiteSpace=wrap;rounded=0;fontSize=19;" parent="B8EaVAHdHB4vTxpewh6I-146" vertex="1">
          <mxGeometry x="101" y="-10" width="27" height="30" as="geometry" />
        </mxCell>
        <mxCell id="B8EaVAHdHB4vTxpewh6I-150" value="" style="group" parent="1" vertex="1" connectable="0">
          <mxGeometry x="1880" y="860" width="130" height="120" as="geometry" />
        </mxCell>
        <mxCell id="B8EaVAHdHB4vTxpewh6I-263" style="edgeStyle=orthogonalEdgeStyle;rounded=0;orthogonalLoop=1;jettySize=auto;html=1;endArrow=none;endFill=0;" parent="B8EaVAHdHB4vTxpewh6I-150" source="B8EaVAHdHB4vTxpewh6I-151" edge="1">
          <mxGeometry relative="1" as="geometry">
            <mxPoint x="-30" y="-100" as="targetPoint" />
            <Array as="points">
              <mxPoint x="-30" y="60" />
              <mxPoint x="-30" y="-100" />
            </Array>
          </mxGeometry>
        </mxCell>
        <mxCell id="B8EaVAHdHB4vTxpewh6I-151" value="&lt;div style=&quot;font-size: 14px;&quot;&gt;&lt;font style=&quot;font-size: 14px;&quot;&gt;Test&amp;nbsp;&lt;span style=&quot;background-color: initial;&quot;&gt;Authority Notification Functionality&lt;/span&gt;&lt;br&gt;&lt;/font&gt;&lt;/div&gt;&lt;div style=&quot;font-size: 14px;&quot;&gt;&lt;font style=&quot;font-size: 14px;&quot;&gt;R4,800&lt;/font&gt;&lt;/div&gt;" style="html=1;whiteSpace=wrap;" parent="B8EaVAHdHB4vTxpewh6I-150" vertex="1">
          <mxGeometry y="20" width="130" height="70" as="geometry" />
        </mxCell>
        <mxCell id="B8EaVAHdHB4vTxpewh6I-152" value="Avish" style="html=1;whiteSpace=wrap;rounded=0;fillStyle=auto;" parent="B8EaVAHdHB4vTxpewh6I-150" vertex="1">
          <mxGeometry y="90" width="130" height="30" as="geometry" />
        </mxCell>
        <mxCell id="B8EaVAHdHB4vTxpewh6I-153" value="5.1.2" style="text;html=1;align=center;verticalAlign=middle;whiteSpace=wrap;rounded=0;fontSize=19;" parent="B8EaVAHdHB4vTxpewh6I-150" vertex="1">
          <mxGeometry x="96" y="-10" width="27" height="30" as="geometry" />
        </mxCell>
        <mxCell id="B8EaVAHdHB4vTxpewh6I-154" value="" style="group" parent="1" vertex="1" connectable="0">
          <mxGeometry x="1880" y="1020" width="130" height="120" as="geometry" />
        </mxCell>
        <mxCell id="B8EaVAHdHB4vTxpewh6I-264" style="edgeStyle=orthogonalEdgeStyle;rounded=0;orthogonalLoop=1;jettySize=auto;html=1;endArrow=none;endFill=0;" parent="B8EaVAHdHB4vTxpewh6I-154" source="B8EaVAHdHB4vTxpewh6I-155" edge="1">
          <mxGeometry relative="1" as="geometry">
            <mxPoint x="-30" y="-100" as="targetPoint" />
            <Array as="points">
              <mxPoint x="-30" y="60" />
              <mxPoint x="-30" y="-100" />
            </Array>
          </mxGeometry>
        </mxCell>
        <mxCell id="B8EaVAHdHB4vTxpewh6I-155" value="&lt;div style=&quot;font-size: 14px;&quot;&gt;&lt;font style=&quot;font-size: 14px;&quot;&gt;Create t&lt;span style=&quot;background-color: initial;&quot;&gt;esting results report&lt;/span&gt;&amp;nbsp;&lt;/font&gt;&lt;/div&gt;&lt;div style=&quot;font-size: 14px;&quot;&gt;&lt;font style=&quot;font-size: 14px;&quot;&gt;R1,600&lt;/font&gt;&lt;/div&gt;" style="html=1;whiteSpace=wrap;" parent="B8EaVAHdHB4vTxpewh6I-154" vertex="1">
          <mxGeometry y="30" width="130" height="60" as="geometry" />
        </mxCell>
        <mxCell id="B8EaVAHdHB4vTxpewh6I-156" value="Blessing" style="html=1;whiteSpace=wrap;rounded=0;fillStyle=auto;" parent="B8EaVAHdHB4vTxpewh6I-154" vertex="1">
          <mxGeometry y="90" width="130" height="30" as="geometry" />
        </mxCell>
        <mxCell id="B8EaVAHdHB4vTxpewh6I-157" value="5.1.3" style="text;html=1;align=center;verticalAlign=middle;whiteSpace=wrap;rounded=0;fontSize=19;" parent="B8EaVAHdHB4vTxpewh6I-154" vertex="1">
          <mxGeometry x="96" width="27" height="30" as="geometry" />
        </mxCell>
        <mxCell id="B8EaVAHdHB4vTxpewh6I-158" value="&lt;font style=&quot;font-size: 19px;&quot;&gt;3.1.2&lt;/font&gt;" style="text;html=1;align=center;verticalAlign=middle;resizable=0;points=[];autosize=1;strokeColor=none;fillColor=none;" parent="1" vertex="1">
          <mxGeometry x="2140" y="902" width="70" height="40" as="geometry" />
        </mxCell>
        <mxCell id="B8EaVAHdHB4vTxpewh6I-159" value="" style="group" parent="1" vertex="1" connectable="0">
          <mxGeometry x="2080" y="540" width="130" height="120" as="geometry" />
        </mxCell>
        <mxCell id="B8EaVAHdHB4vTxpewh6I-160" value="&lt;font style=&quot;font-size: 14px;&quot;&gt;Penetration&lt;/font&gt;&lt;div style=&quot;font-size: 14px;&quot;&gt;&lt;font style=&quot;font-size: 14px;&quot;&gt;Testing&amp;nbsp;&lt;/font&gt;&lt;/div&gt;&lt;div style=&quot;font-size: 14px;&quot;&gt;&lt;font style=&quot;font-size: 14px;&quot;&gt;&lt;font style=&quot;font-size: 14px;&quot;&gt;R54,600&lt;/font&gt;&lt;br&gt;&lt;/font&gt;&lt;/div&gt;" style="html=1;whiteSpace=wrap;" parent="B8EaVAHdHB4vTxpewh6I-159" vertex="1">
          <mxGeometry y="30" width="130" height="60" as="geometry" />
        </mxCell>
        <mxCell id="B8EaVAHdHB4vTxpewh6I-161" value="Blessing" style="html=1;whiteSpace=wrap;rounded=0;fillStyle=auto;" parent="B8EaVAHdHB4vTxpewh6I-159" vertex="1">
          <mxGeometry y="90" width="130" height="30" as="geometry" />
        </mxCell>
        <mxCell id="B8EaVAHdHB4vTxpewh6I-162" value="5.2" style="text;html=1;align=center;verticalAlign=middle;whiteSpace=wrap;rounded=0;fontSize=19;" parent="B8EaVAHdHB4vTxpewh6I-159" vertex="1">
          <mxGeometry x="103" width="27" height="30" as="geometry" />
        </mxCell>
        <mxCell id="B8EaVAHdHB4vTxpewh6I-163" value="" style="group" parent="1" vertex="1" connectable="0">
          <mxGeometry x="2080" y="700" width="130" height="120" as="geometry" />
        </mxCell>
        <mxCell id="B8EaVAHdHB4vTxpewh6I-164" value="&lt;span style=&quot;font-size: 14px;&quot;&gt;Identify&amp;nbsp;&lt;/span&gt;&lt;div&gt;&lt;span style=&quot;font-size: 14px;&quot;&gt;application vulnerabilities R48,000&lt;br&gt;&lt;/span&gt;&lt;/div&gt;" style="html=1;whiteSpace=wrap;" parent="B8EaVAHdHB4vTxpewh6I-163" vertex="1">
          <mxGeometry y="20" width="130" height="70" as="geometry" />
        </mxCell>
        <mxCell id="B8EaVAHdHB4vTxpewh6I-165" value="Kaushil" style="html=1;whiteSpace=wrap;rounded=0;fillStyle=auto;" parent="B8EaVAHdHB4vTxpewh6I-163" vertex="1">
          <mxGeometry y="90" width="130" height="30" as="geometry" />
        </mxCell>
        <mxCell id="B8EaVAHdHB4vTxpewh6I-166" value="5.2.1" style="text;html=1;align=center;verticalAlign=middle;whiteSpace=wrap;rounded=0;fontSize=19;" parent="B8EaVAHdHB4vTxpewh6I-163" vertex="1">
          <mxGeometry x="96" y="-11" width="27" height="30" as="geometry" />
        </mxCell>
        <mxCell id="B8EaVAHdHB4vTxpewh6I-167" value="" style="group" parent="1" vertex="1" connectable="0">
          <mxGeometry x="2080" y="860" width="130" height="120" as="geometry" />
        </mxCell>
        <mxCell id="B8EaVAHdHB4vTxpewh6I-266" style="edgeStyle=orthogonalEdgeStyle;rounded=0;orthogonalLoop=1;jettySize=auto;html=1;endArrow=none;endFill=0;" parent="B8EaVAHdHB4vTxpewh6I-167" source="B8EaVAHdHB4vTxpewh6I-168" edge="1">
          <mxGeometry relative="1" as="geometry">
            <mxPoint x="-30" y="-100" as="targetPoint" />
            <Array as="points">
              <mxPoint x="-30" y="60" />
              <mxPoint x="-30" y="-100" />
            </Array>
          </mxGeometry>
        </mxCell>
        <mxCell id="B8EaVAHdHB4vTxpewh6I-168" value="&lt;div style=&quot;font-size: 14px;&quot;&gt;&lt;font style=&quot;font-size: 14px;&quot;&gt;Assess&amp;nbsp;&lt;span style=&quot;background-color: initial;&quot;&gt;employee cybersecurity hygiene&lt;/span&gt;&amp;nbsp;&lt;/font&gt;&lt;/div&gt;&lt;div style=&quot;font-size: 14px;&quot;&gt;&lt;font style=&quot;font-size: 14px;&quot;&gt;R4,800&lt;/font&gt;&lt;/div&gt;" style="html=1;whiteSpace=wrap;" parent="B8EaVAHdHB4vTxpewh6I-167" vertex="1">
          <mxGeometry y="20" width="130" height="70" as="geometry" />
        </mxCell>
        <mxCell id="B8EaVAHdHB4vTxpewh6I-169" value="Eben" style="html=1;whiteSpace=wrap;rounded=0;fillStyle=auto;" parent="B8EaVAHdHB4vTxpewh6I-167" vertex="1">
          <mxGeometry y="90" width="130" height="30" as="geometry" />
        </mxCell>
        <mxCell id="B8EaVAHdHB4vTxpewh6I-170" value="5.2.2" style="text;html=1;align=center;verticalAlign=middle;whiteSpace=wrap;rounded=0;fontSize=19;" parent="B8EaVAHdHB4vTxpewh6I-167" vertex="1">
          <mxGeometry x="96" y="-10" width="27" height="30" as="geometry" />
        </mxCell>
        <mxCell id="B8EaVAHdHB4vTxpewh6I-171" value="" style="group" parent="1" vertex="1" connectable="0">
          <mxGeometry x="2080" y="1020" width="130" height="120" as="geometry" />
        </mxCell>
        <mxCell id="B8EaVAHdHB4vTxpewh6I-267" style="edgeStyle=orthogonalEdgeStyle;rounded=0;orthogonalLoop=1;jettySize=auto;html=1;endArrow=none;endFill=0;" parent="B8EaVAHdHB4vTxpewh6I-171" source="B8EaVAHdHB4vTxpewh6I-172" edge="1">
          <mxGeometry relative="1" as="geometry">
            <mxPoint x="-30" y="-100" as="targetPoint" />
            <Array as="points">
              <mxPoint x="-30" y="60" />
              <mxPoint x="-30" y="-100" />
            </Array>
          </mxGeometry>
        </mxCell>
        <mxCell id="B8EaVAHdHB4vTxpewh6I-172" value="&lt;div style=&quot;font-size: 14px;&quot;&gt;&lt;font style=&quot;font-size: 14px;&quot;&gt;Create testing results report&amp;nbsp;&lt;/font&gt;&lt;/div&gt;&lt;div style=&quot;font-size: 14px;&quot;&gt;&lt;font style=&quot;font-size: 14px;&quot;&gt;R1,800&lt;/font&gt;&lt;/div&gt;" style="html=1;whiteSpace=wrap;" parent="B8EaVAHdHB4vTxpewh6I-171" vertex="1">
          <mxGeometry y="30" width="130" height="60" as="geometry" />
        </mxCell>
        <mxCell id="B8EaVAHdHB4vTxpewh6I-173" value="Avish" style="html=1;whiteSpace=wrap;rounded=0;fillStyle=auto;" parent="B8EaVAHdHB4vTxpewh6I-171" vertex="1">
          <mxGeometry y="90" width="130" height="30" as="geometry" />
        </mxCell>
        <mxCell id="B8EaVAHdHB4vTxpewh6I-174" value="5.2.3" style="text;html=1;align=center;verticalAlign=middle;whiteSpace=wrap;rounded=0;fontSize=19;" parent="B8EaVAHdHB4vTxpewh6I-171" vertex="1">
          <mxGeometry x="96" width="27" height="30" as="geometry" />
        </mxCell>
        <mxCell id="B8EaVAHdHB4vTxpewh6I-179" value="" style="group" parent="1" vertex="1" connectable="0">
          <mxGeometry x="910" y="10" width="200" height="120" as="geometry" />
        </mxCell>
        <mxCell id="B8EaVAHdHB4vTxpewh6I-176" value="&lt;font face=&quot;Helvetica&quot; style=&quot;font-size: 14px;&quot;&gt;Secure Guard&lt;br&gt;&lt;/font&gt;" style="html=1;whiteSpace=wrap;" parent="B8EaVAHdHB4vTxpewh6I-179" vertex="1">
          <mxGeometry width="200" height="80" as="geometry" />
        </mxCell>
        <mxCell id="B8EaVAHdHB4vTxpewh6I-177" value="Kaushil" style="html=1;whiteSpace=wrap;rounded=0;fillStyle=auto;" parent="B8EaVAHdHB4vTxpewh6I-179" vertex="1">
          <mxGeometry y="80" width="200" height="40" as="geometry" />
        </mxCell>
        <mxCell id="B8EaVAHdHB4vTxpewh6I-213" style="edgeStyle=orthogonalEdgeStyle;rounded=0;orthogonalLoop=1;jettySize=auto;html=1;endArrow=none;endFill=0;" parent="1" source="B8EaVAHdHB4vTxpewh6I-24" target="B8EaVAHdHB4vTxpewh6I-185" edge="1">
          <mxGeometry relative="1" as="geometry">
            <Array as="points">
              <mxPoint x="175" y="490" />
              <mxPoint x="280" y="490" />
            </Array>
          </mxGeometry>
        </mxCell>
        <mxCell id="B8EaVAHdHB4vTxpewh6I-214" style="edgeStyle=orthogonalEdgeStyle;rounded=0;orthogonalLoop=1;jettySize=auto;html=1;entryX=0.5;entryY=1;entryDx=0;entryDy=0;endArrow=none;endFill=0;" parent="1" source="B8EaVAHdHB4vTxpewh6I-41" target="B8EaVAHdHB4vTxpewh6I-185" edge="1">
          <mxGeometry relative="1" as="geometry" />
        </mxCell>
        <mxCell id="B8EaVAHdHB4vTxpewh6I-223" style="edgeStyle=orthogonalEdgeStyle;rounded=0;orthogonalLoop=1;jettySize=auto;html=1;entryX=0.5;entryY=1;entryDx=0;entryDy=0;endArrow=none;endFill=0;" parent="1" source="B8EaVAHdHB4vTxpewh6I-143" target="B8EaVAHdHB4vTxpewh6I-194" edge="1">
          <mxGeometry relative="1" as="geometry" />
        </mxCell>
        <mxCell id="B8EaVAHdHB4vTxpewh6I-224" style="edgeStyle=orthogonalEdgeStyle;rounded=0;orthogonalLoop=1;jettySize=auto;html=1;entryX=0.5;entryY=1;entryDx=0;entryDy=0;endArrow=none;endFill=0;" parent="1" source="B8EaVAHdHB4vTxpewh6I-160" target="B8EaVAHdHB4vTxpewh6I-194" edge="1">
          <mxGeometry relative="1" as="geometry" />
        </mxCell>
        <mxCell id="B8EaVAHdHB4vTxpewh6I-228" style="edgeStyle=orthogonalEdgeStyle;rounded=0;orthogonalLoop=1;jettySize=auto;html=1;entryX=0;entryY=0.5;entryDx=0;entryDy=0;endArrow=none;endFill=0;" parent="1" source="B8EaVAHdHB4vTxpewh6I-45" target="B8EaVAHdHB4vTxpewh6I-41" edge="1">
          <mxGeometry relative="1" as="geometry">
            <Array as="points">
              <mxPoint x="290" y="760" />
              <mxPoint x="290" y="600" />
            </Array>
          </mxGeometry>
        </mxCell>
        <mxCell id="B8EaVAHdHB4vTxpewh6I-236" style="edgeStyle=orthogonalEdgeStyle;rounded=0;orthogonalLoop=1;jettySize=auto;html=1;entryX=0;entryY=0.5;entryDx=0;entryDy=0;endArrow=none;endFill=0;" parent="1" source="B8EaVAHdHB4vTxpewh6I-62" target="B8EaVAHdHB4vTxpewh6I-58" edge="1">
          <mxGeometry relative="1" as="geometry">
            <Array as="points">
              <mxPoint x="530" y="760" />
              <mxPoint x="530" y="600" />
            </Array>
          </mxGeometry>
        </mxCell>
        <mxCell id="B8EaVAHdHB4vTxpewh6I-246" style="edgeStyle=orthogonalEdgeStyle;rounded=0;orthogonalLoop=1;jettySize=auto;html=1;entryX=0;entryY=0.5;entryDx=0;entryDy=0;endArrow=none;endFill=0;" parent="1" source="B8EaVAHdHB4vTxpewh6I-28" target="B8EaVAHdHB4vTxpewh6I-24" edge="1">
          <mxGeometry relative="1" as="geometry">
            <Array as="points">
              <mxPoint x="90" y="760" />
              <mxPoint x="90" y="600" />
            </Array>
          </mxGeometry>
        </mxCell>
        <mxCell id="B8EaVAHdHB4vTxpewh6I-248" value="" style="group" parent="1" vertex="1" connectable="0">
          <mxGeometry x="180" y="270" width="200" height="140" as="geometry" />
        </mxCell>
        <mxCell id="B8EaVAHdHB4vTxpewh6I-183" value="" style="group" parent="B8EaVAHdHB4vTxpewh6I-248" vertex="1" connectable="0">
          <mxGeometry y="20" width="200" height="120" as="geometry" />
        </mxCell>
        <mxCell id="B8EaVAHdHB4vTxpewh6I-205" style="edgeStyle=orthogonalEdgeStyle;rounded=0;orthogonalLoop=1;jettySize=auto;html=1;endArrow=none;endFill=0;" parent="B8EaVAHdHB4vTxpewh6I-183" source="B8EaVAHdHB4vTxpewh6I-184" edge="1">
          <mxGeometry relative="1" as="geometry">
            <mxPoint x="550" y="-90" as="targetPoint" />
            <Array as="points">
              <mxPoint x="100" y="-90" />
            </Array>
          </mxGeometry>
        </mxCell>
        <mxCell id="B8EaVAHdHB4vTxpewh6I-184" value="&lt;div style=&quot;font-size: 14px;&quot;&gt;&lt;font style=&quot;font-size: 14px;&quot;&gt;Project Plan report&lt;/font&gt;&lt;/div&gt;&lt;div style=&quot;font-size: 14px;&quot;&gt;&lt;font style=&quot;font-size: 14px;&quot;&gt;&lt;font style=&quot;font-size: 14px;&quot;&gt;R55,392&lt;/font&gt;&lt;br&gt;&lt;/font&gt;&lt;/div&gt;" style="html=1;whiteSpace=wrap;" parent="B8EaVAHdHB4vTxpewh6I-183" vertex="1">
          <mxGeometry width="200" height="80" as="geometry" />
        </mxCell>
        <mxCell id="B8EaVAHdHB4vTxpewh6I-185" value="Blessing" style="html=1;whiteSpace=wrap;rounded=0;fillStyle=auto;" parent="B8EaVAHdHB4vTxpewh6I-183" vertex="1">
          <mxGeometry y="80" width="200" height="40" as="geometry" />
        </mxCell>
        <mxCell id="B8EaVAHdHB4vTxpewh6I-199" value="1" style="text;html=1;align=center;verticalAlign=middle;whiteSpace=wrap;rounded=0;fontSize=19;" parent="B8EaVAHdHB4vTxpewh6I-248" vertex="1">
          <mxGeometry x="183" width="17" height="20" as="geometry" />
        </mxCell>
        <mxCell id="B8EaVAHdHB4vTxpewh6I-249" value="" style="group" parent="1" vertex="1" connectable="0">
          <mxGeometry x="630" y="270" width="200" height="140" as="geometry" />
        </mxCell>
        <mxCell id="B8EaVAHdHB4vTxpewh6I-180" value="" style="group" parent="B8EaVAHdHB4vTxpewh6I-249" vertex="1" connectable="0">
          <mxGeometry y="20" width="200" height="120" as="geometry" />
        </mxCell>
        <mxCell id="B8EaVAHdHB4vTxpewh6I-181" value="&lt;font face=&quot;Helvetica&quot; style=&quot;font-size: 14px;&quot;&gt;Risk identification &amp;amp;&lt;/font&gt;&lt;div style=&quot;font-size: 14px;&quot;&gt;&lt;font face=&quot;Helvetica&quot; style=&quot;font-size: 14px;&quot;&gt;mitigation report&lt;/font&gt;&lt;/div&gt;&lt;div style=&quot;font-size: 14px;&quot;&gt;&lt;font face=&quot;Helvetica&quot; style=&quot;font-size: 14px;&quot;&gt;R70,532&lt;br&gt;&lt;/font&gt;&lt;/div&gt;" style="html=1;whiteSpace=wrap;" parent="B8EaVAHdHB4vTxpewh6I-180" vertex="1">
          <mxGeometry width="200" height="80" as="geometry" />
        </mxCell>
        <mxCell id="B8EaVAHdHB4vTxpewh6I-182" value="Eben" style="html=1;whiteSpace=wrap;rounded=0;fillStyle=auto;" parent="B8EaVAHdHB4vTxpewh6I-180" vertex="1">
          <mxGeometry y="80" width="200" height="40" as="geometry" />
        </mxCell>
        <mxCell id="B8EaVAHdHB4vTxpewh6I-198" value="2" style="text;html=1;align=center;verticalAlign=middle;whiteSpace=wrap;rounded=0;fontSize=19;" parent="B8EaVAHdHB4vTxpewh6I-249" vertex="1">
          <mxGeometry x="181.5" width="18.5" height="20" as="geometry" />
        </mxCell>
        <mxCell id="B8EaVAHdHB4vTxpewh6I-250" value="" style="group" parent="1" vertex="1" connectable="0">
          <mxGeometry x="1080" y="280" width="200" height="140" as="geometry" />
        </mxCell>
        <mxCell id="B8EaVAHdHB4vTxpewh6I-186" value="" style="group" parent="B8EaVAHdHB4vTxpewh6I-250" vertex="1" connectable="0">
          <mxGeometry y="20" width="200" height="120" as="geometry" />
        </mxCell>
        <mxCell id="B8EaVAHdHB4vTxpewh6I-187" value="&lt;font style=&quot;font-size: 14px;&quot;&gt;User&amp;nbsp;&lt;span style=&quot;background-color: initial;&quot;&gt;Interface&amp;nbsp;&lt;/span&gt;&lt;/font&gt;&lt;div style=&quot;font-size: 14px;&quot;&gt;&lt;font style=&quot;font-size: 14px;&quot;&gt;&lt;span style=&quot;background-color: initial;&quot;&gt;design files&lt;/span&gt;&lt;/font&gt;&lt;/div&gt;&lt;div style=&quot;font-size: 14px;&quot;&gt;&lt;font style=&quot;font-size: 14px;&quot;&gt;&lt;span style=&quot;background-color: initial;&quot;&gt;R25,122&lt;br&gt;&lt;/span&gt;&lt;/font&gt;&lt;/div&gt;" style="html=1;whiteSpace=wrap;" parent="B8EaVAHdHB4vTxpewh6I-186" vertex="1">
          <mxGeometry width="200" height="80" as="geometry" />
        </mxCell>
        <mxCell id="B8EaVAHdHB4vTxpewh6I-188" value="Kaushil" style="html=1;whiteSpace=wrap;rounded=0;fillStyle=auto;" parent="B8EaVAHdHB4vTxpewh6I-186" vertex="1">
          <mxGeometry y="80" width="200" height="40" as="geometry" />
        </mxCell>
        <mxCell id="B8EaVAHdHB4vTxpewh6I-197" value="3" style="text;html=1;align=center;verticalAlign=middle;whiteSpace=wrap;rounded=0;fontSize=19;" parent="B8EaVAHdHB4vTxpewh6I-250" vertex="1">
          <mxGeometry x="182" width="18" height="20" as="geometry" />
        </mxCell>
        <mxCell id="B8EaVAHdHB4vTxpewh6I-251" value="" style="group" parent="1" vertex="1" connectable="0">
          <mxGeometry x="1480" y="270" width="201" height="140" as="geometry" />
        </mxCell>
        <mxCell id="B8EaVAHdHB4vTxpewh6I-189" value="" style="group" parent="B8EaVAHdHB4vTxpewh6I-251" vertex="1" connectable="0">
          <mxGeometry y="20" width="200" height="120" as="geometry" />
        </mxCell>
        <mxCell id="B8EaVAHdHB4vTxpewh6I-207" style="edgeStyle=orthogonalEdgeStyle;rounded=0;orthogonalLoop=1;jettySize=auto;html=1;endArrow=none;endFill=0;" parent="B8EaVAHdHB4vTxpewh6I-189" source="B8EaVAHdHB4vTxpewh6I-190" edge="1">
          <mxGeometry relative="1" as="geometry">
            <mxPoint x="-300" y="-90" as="targetPoint" />
            <Array as="points">
              <mxPoint x="100" y="-90" />
            </Array>
          </mxGeometry>
        </mxCell>
        <mxCell id="B8EaVAHdHB4vTxpewh6I-190" value="&lt;div style=&quot;font-size: 14px;&quot;&gt;&lt;font style=&quot;font-size: 14px;&quot;&gt;Development&amp;nbsp;&lt;span style=&quot;background-color: initial;&quot;&gt;build&lt;/span&gt;&lt;/font&gt;&lt;/div&gt;&lt;div style=&quot;font-size: 14px;&quot;&gt;&lt;font style=&quot;font-size: 14px;&quot;&gt;&lt;span style=&quot;background-color: initial;&quot;&gt;R478,464&lt;br&gt;&lt;/span&gt;&lt;/font&gt;&lt;/div&gt;" style="html=1;whiteSpace=wrap;" parent="B8EaVAHdHB4vTxpewh6I-189" vertex="1">
          <mxGeometry width="200" height="80" as="geometry" />
        </mxCell>
        <mxCell id="B8EaVAHdHB4vTxpewh6I-191" value="Avish" style="html=1;whiteSpace=wrap;rounded=0;fillStyle=auto;" parent="B8EaVAHdHB4vTxpewh6I-189" vertex="1">
          <mxGeometry y="80" width="200" height="40" as="geometry" />
        </mxCell>
        <mxCell id="B8EaVAHdHB4vTxpewh6I-196" value="4" style="text;html=1;align=center;verticalAlign=middle;whiteSpace=wrap;rounded=0;fontSize=19;" parent="B8EaVAHdHB4vTxpewh6I-251" vertex="1">
          <mxGeometry x="185" width="16" height="20" as="geometry" />
        </mxCell>
        <mxCell id="B8EaVAHdHB4vTxpewh6I-252" value="" style="group" parent="1" vertex="1" connectable="0">
          <mxGeometry x="1926" y="270" width="200" height="140" as="geometry" />
        </mxCell>
        <mxCell id="B8EaVAHdHB4vTxpewh6I-192" value="" style="group" parent="B8EaVAHdHB4vTxpewh6I-252" vertex="1" connectable="0">
          <mxGeometry y="20" width="200" height="120" as="geometry" />
        </mxCell>
        <mxCell id="B8EaVAHdHB4vTxpewh6I-281" style="edgeStyle=orthogonalEdgeStyle;rounded=0;orthogonalLoop=1;jettySize=auto;html=1;endArrow=none;endFill=0;" parent="B8EaVAHdHB4vTxpewh6I-192" source="B8EaVAHdHB4vTxpewh6I-193" edge="1">
          <mxGeometry relative="1" as="geometry">
            <mxPoint x="-346" y="-90" as="targetPoint" />
            <Array as="points">
              <mxPoint x="100" y="-90" />
            </Array>
          </mxGeometry>
        </mxCell>
        <mxCell id="B8EaVAHdHB4vTxpewh6I-193" value="&lt;font style=&quot;font-size: 14px;&quot;&gt;Development&amp;nbsp;&lt;/font&gt;&lt;div style=&quot;font-size: 14px;&quot;&gt;&lt;font style=&quot;font-size: 14px;&quot;&gt;build test results&lt;/font&gt;&lt;/div&gt;&lt;div style=&quot;font-size: 14px;&quot;&gt;&lt;font style=&quot;font-size: 14px;&quot;&gt;&lt;font style=&quot;font-size: 14px;&quot;&gt;R64,200&lt;/font&gt;&lt;br&gt;&lt;/font&gt;&lt;/div&gt;" style="html=1;whiteSpace=wrap;" parent="B8EaVAHdHB4vTxpewh6I-192" vertex="1">
          <mxGeometry width="200" height="80" as="geometry" />
        </mxCell>
        <mxCell id="B8EaVAHdHB4vTxpewh6I-194" value="Eben" style="html=1;whiteSpace=wrap;rounded=0;fillStyle=auto;" parent="B8EaVAHdHB4vTxpewh6I-192" vertex="1">
          <mxGeometry y="80" width="200" height="40" as="geometry" />
        </mxCell>
        <mxCell id="B8EaVAHdHB4vTxpewh6I-195" value="5" style="text;html=1;align=center;verticalAlign=middle;whiteSpace=wrap;rounded=0;fontSize=19;" parent="B8EaVAHdHB4vTxpewh6I-252" vertex="1">
          <mxGeometry x="188.5" width="11.5" height="20" as="geometry" />
        </mxCell>
        <mxCell id="B8EaVAHdHB4vTxpewh6I-254" style="edgeStyle=orthogonalEdgeStyle;rounded=0;orthogonalLoop=1;jettySize=auto;html=1;entryX=0;entryY=0.5;entryDx=0;entryDy=0;endArrow=none;endFill=0;" parent="1" source="B8EaVAHdHB4vTxpewh6I-11" target="B8EaVAHdHB4vTxpewh6I-5" edge="1">
          <mxGeometry relative="1" as="geometry">
            <Array as="points">
              <mxPoint x="970" y="761" />
              <mxPoint x="970" y="600" />
            </Array>
          </mxGeometry>
        </mxCell>
        <mxCell id="B8EaVAHdHB4vTxpewh6I-258" style="edgeStyle=orthogonalEdgeStyle;rounded=0;orthogonalLoop=1;jettySize=auto;html=1;entryX=0;entryY=0.5;entryDx=0;entryDy=0;endArrow=none;endFill=0;" parent="1" source="B8EaVAHdHB4vTxpewh6I-113" target="B8EaVAHdHB4vTxpewh6I-109" edge="1">
          <mxGeometry relative="1" as="geometry">
            <Array as="points">
              <mxPoint x="1410" y="760" />
              <mxPoint x="1410" y="600" />
            </Array>
          </mxGeometry>
        </mxCell>
        <mxCell id="B8EaVAHdHB4vTxpewh6I-261" style="edgeStyle=orthogonalEdgeStyle;rounded=0;orthogonalLoop=1;jettySize=auto;html=1;entryX=0;entryY=0.5;entryDx=0;entryDy=0;endArrow=none;endFill=0;" parent="1" source="B8EaVAHdHB4vTxpewh6I-147" target="B8EaVAHdHB4vTxpewh6I-143" edge="1">
          <mxGeometry relative="1" as="geometry">
            <Array as="points">
              <mxPoint x="1850" y="760" />
              <mxPoint x="1850" y="600" />
            </Array>
          </mxGeometry>
        </mxCell>
        <mxCell id="B8EaVAHdHB4vTxpewh6I-265" style="edgeStyle=orthogonalEdgeStyle;rounded=0;orthogonalLoop=1;jettySize=auto;html=1;entryX=0;entryY=0.5;entryDx=0;entryDy=0;endArrow=none;endFill=0;" parent="1" source="B8EaVAHdHB4vTxpewh6I-164" target="B8EaVAHdHB4vTxpewh6I-160" edge="1">
          <mxGeometry relative="1" as="geometry">
            <Array as="points">
              <mxPoint x="2050" y="760" />
              <mxPoint x="2050" y="600" />
            </Array>
          </mxGeometry>
        </mxCell>
        <mxCell id="B8EaVAHdHB4vTxpewh6I-268" style="edgeStyle=orthogonalEdgeStyle;rounded=0;orthogonalLoop=1;jettySize=auto;html=1;entryX=0;entryY=0.5;entryDx=0;entryDy=0;endArrow=none;endFill=0;" parent="1" source="B8EaVAHdHB4vTxpewh6I-130" target="B8EaVAHdHB4vTxpewh6I-126" edge="1">
          <mxGeometry relative="1" as="geometry">
            <Array as="points">
              <mxPoint x="1610" y="761" />
              <mxPoint x="1610" y="600" />
            </Array>
          </mxGeometry>
        </mxCell>
        <mxCell id="B8EaVAHdHB4vTxpewh6I-272" style="edgeStyle=orthogonalEdgeStyle;rounded=0;orthogonalLoop=1;jettySize=auto;html=1;entryX=0;entryY=0.5;entryDx=0;entryDy=0;endArrow=none;endFill=0;" parent="1" source="B8EaVAHdHB4vTxpewh6I-96" target="B8EaVAHdHB4vTxpewh6I-92" edge="1">
          <mxGeometry relative="1" as="geometry">
            <Array as="points">
              <mxPoint x="1170" y="760" />
              <mxPoint x="1170" y="600" />
            </Array>
          </mxGeometry>
        </mxCell>
        <mxCell id="B8EaVAHdHB4vTxpewh6I-275" style="edgeStyle=orthogonalEdgeStyle;rounded=0;orthogonalLoop=1;jettySize=auto;html=1;entryX=0;entryY=0.5;entryDx=0;entryDy=0;endArrow=none;endFill=0;" parent="1" source="B8EaVAHdHB4vTxpewh6I-79" target="B8EaVAHdHB4vTxpewh6I-75" edge="1">
          <mxGeometry relative="1" as="geometry">
            <Array as="points">
              <mxPoint x="730" y="758" />
              <mxPoint x="730" y="600" />
            </Array>
          </mxGeometry>
        </mxCell>
        <mxCell id="B8EaVAHdHB4vTxpewh6I-286" style="edgeStyle=orthogonalEdgeStyle;rounded=0;orthogonalLoop=1;jettySize=auto;html=1;entryX=0.5;entryY=1;entryDx=0;entryDy=0;endArrow=none;endFill=0;" parent="1" source="B8EaVAHdHB4vTxpewh6I-92" target="B8EaVAHdHB4vTxpewh6I-188" edge="1">
          <mxGeometry relative="1" as="geometry" />
        </mxCell>
        <mxCell id="B8EaVAHdHB4vTxpewh6I-287" style="edgeStyle=orthogonalEdgeStyle;rounded=0;orthogonalLoop=1;jettySize=auto;html=1;entryX=0.5;entryY=1;entryDx=0;entryDy=0;endArrow=none;endFill=0;" parent="1" source="B8EaVAHdHB4vTxpewh6I-5" target="B8EaVAHdHB4vTxpewh6I-188" edge="1">
          <mxGeometry relative="1" as="geometry" />
        </mxCell>
        <mxCell id="B8EaVAHdHB4vTxpewh6I-288" style="edgeStyle=orthogonalEdgeStyle;rounded=0;orthogonalLoop=1;jettySize=auto;html=1;entryX=0.5;entryY=1;entryDx=0;entryDy=0;endArrow=none;endFill=0;" parent="1" source="B8EaVAHdHB4vTxpewh6I-58" target="B8EaVAHdHB4vTxpewh6I-182" edge="1">
          <mxGeometry relative="1" as="geometry" />
        </mxCell>
        <mxCell id="B8EaVAHdHB4vTxpewh6I-290" style="edgeStyle=orthogonalEdgeStyle;rounded=0;orthogonalLoop=1;jettySize=auto;html=1;entryX=0.5;entryY=1;entryDx=0;entryDy=0;endArrow=none;endFill=0;" parent="1" source="B8EaVAHdHB4vTxpewh6I-75" target="B8EaVAHdHB4vTxpewh6I-182" edge="1">
          <mxGeometry relative="1" as="geometry" />
        </mxCell>
        <mxCell id="B8EaVAHdHB4vTxpewh6I-291" style="edgeStyle=orthogonalEdgeStyle;rounded=0;orthogonalLoop=1;jettySize=auto;html=1;entryX=0.5;entryY=1;entryDx=0;entryDy=0;endArrow=none;endFill=0;" parent="1" source="B8EaVAHdHB4vTxpewh6I-126" target="B8EaVAHdHB4vTxpewh6I-191" edge="1">
          <mxGeometry relative="1" as="geometry" />
        </mxCell>
        <mxCell id="B8EaVAHdHB4vTxpewh6I-292" style="edgeStyle=orthogonalEdgeStyle;rounded=0;orthogonalLoop=1;jettySize=auto;html=1;entryX=0.5;entryY=1;entryDx=0;entryDy=0;endArrow=none;endFill=0;" parent="1" source="B8EaVAHdHB4vTxpewh6I-109" target="B8EaVAHdHB4vTxpewh6I-191" edge="1">
          <mxGeometry relative="1" as="geometry" />
        </mxCell>
        <mxCell id="B8EaVAHdHB4vTxpewh6I-293" style="edgeStyle=orthogonalEdgeStyle;rounded=0;orthogonalLoop=1;jettySize=auto;html=1;entryX=0.5;entryY=1;entryDx=0;entryDy=0;endArrow=none;endFill=0;" parent="1" source="B8EaVAHdHB4vTxpewh6I-181" target="B8EaVAHdHB4vTxpewh6I-177" edge="1">
          <mxGeometry relative="1" as="geometry">
            <Array as="points">
              <mxPoint x="730" y="200" />
              <mxPoint x="1010" y="200" />
            </Array>
          </mxGeometry>
        </mxCell>
        <mxCell id="B8EaVAHdHB4vTxpewh6I-294" style="edgeStyle=orthogonalEdgeStyle;rounded=0;orthogonalLoop=1;jettySize=auto;html=1;endArrow=none;endFill=0;" parent="1" source="B8EaVAHdHB4vTxpewh6I-187" edge="1">
          <mxGeometry relative="1" as="geometry">
            <mxPoint x="1010" y="130" as="targetPoint" />
            <Array as="points">
              <mxPoint x="1180" y="200" />
              <mxPoint x="1010" y="200" />
            </Array>
          </mxGeometry>
        </mxCell>
        <mxCell id="B8EaVAHdHB4vTxpewh6I-295" value="Text" style="text;html=1;align=center;verticalAlign=middle;rounded=0;labelBackgroundColor=default;fontColor=#FFFFFF;textShadow=0;whiteSpace=wrap;" parent="1" vertex="1">
          <mxGeometry x="50" y="756" width="30" height="24" as="geometry" />
        </mxCell>
        <mxCell id="B8EaVAHdHB4vTxpewh6I-296" value="Text" style="text;html=1;align=center;verticalAlign=middle;rounded=0;labelBackgroundColor=default;fontColor=#FFFFFF;textShadow=0;whiteSpace=wrap;" parent="1" vertex="1">
          <mxGeometry x="850" width="30" height="24" as="geometry" />
        </mxCell>
        <mxCell id="B8EaVAHdHB4vTxpewh6I-297" value="Text" style="text;html=1;align=center;verticalAlign=middle;rounded=0;labelBackgroundColor=default;fontColor=#FFFFFF;textShadow=0;whiteSpace=wrap;" parent="1" vertex="1">
          <mxGeometry x="710" y="1140" width="30" height="24" as="geometry" />
        </mxCell>
      </root>
    </mxGraphModel>
  </diagram>
</mxfile>
